<?xml version="1.0" encoding="UTF-8"?>
<!DOCTYPE svg PUBLIC "-//W3C//DTD SVG 1.1//EN" "http://www.w3.org/Graphics/SVG/1.1/DTD/svg11.dtd">
<!-- Creator: CorelDRAW 2020 (64-Bit) -->
<svg xmlns="http://www.w3.org/2000/svg" xml:space="preserve" width="11.6929in" height="8.26772in" version="1.1" style="shape-rendering:geometricPrecision; text-rendering:geometricPrecision; image-rendering:optimizeQuality; fill-rule:evenodd; clip-rule:evenodd"
viewBox="0 0 11692.91 8267.72"
 xmlns:xlink="http://www.w3.org/1999/xlink"
 xmlns:xodm="http://www.corel.com/coreldraw/odm/2003">
 <defs>
  <style type="text/css">
   <![CDATA[
    .fil0 {fill:#FEFEFE}
    .fil1 {fill:#00679A}
    .fil2 {fill:#EDEFF4}
   ]]>
  </style>
 </defs>
 <g id="Layer_x0020_1">
  <metadata id="CorelCorpID_0Corel-Layer"/>
  <rect class="fil0" x="1169.95" y="230.48" width="13691.97" height="8901.44"/>
  <path class="fil1" d="M-1796.65 230.01l6176.63 0 0 8075.31c-910.61,526.39 -1965.48,827.89 -3088.31,827.89 -1122.82,0 -2177.69,-301.48 -3088.31,-827.87l0 -8075.33zm7355.1 5163.43c0,69.91 9.39,129.44 98.3,179.67l-628.63 0c89.84,-49.59 98.3,-110.08 98.3,-179.67l0 -1595c0,-70.09 -6.78,-128.94 -98.3,-178.17l530.33 0 0 377.52 0 1395.66zm0 -1773.18l3373.19 0 -433.04 377.52 -599.38 0c-103.97,25.44 -143.91,83.75 -143.08,148.82 1.8,142.15 179.41,155.95 363.77,200.49 134.55,32.49 269.32,73.22 331.17,94.74 259.32,90.27 441.26,235.72 445.24,541.42 5.48,420.78 -427,604.11 -825.7,615.65 -222.57,6.43 -439.89,-38.24 -653.61,-89.52l-99.92 -387.76c131.4,50.31 450.89,124.22 723.99,125.58 290.72,1.45 436.96,-63.29 431.71,-236.19 -4.3,-142.15 -128.78,-210.84 -313.14,-255.35 -134.52,-32.49 -294.65,-60.57 -356.48,-82.09 -259.33,-90.26 -470.8,-172.43 -474.79,-478.11 -0.93,-72.9 11.25,-138.68 34.14,-197.67l-626.28 0 0 1395.66c0,69.91 9.39,129.44 98.29,179.67l-628.63 0c89.85,-49.59 98.3,-110.08 98.3,-179.67l0 -1395.66 -745.74 0 -431.96 0 431.96 -377.52zm8959.38 4307.62c-8.19,-6.02 -16.59,-10.39 -25.16,-13.14 -8.57,-2.72 -17.86,-4.01 -28.26,-4.01 -37.73,0 -66.53,12.77 -86.22,38.29 -19.87,25.33 -29.71,62.16 -29.71,110.28l0 193.78c0,22.79 2.91,41.75 8.74,57.06 6.04,15.31 15.31,28.8 28.07,40.1l-174.63 0c13.13,-11.3 22.6,-24.8 28.25,-40.1 5.66,-15.31 8.56,-34.27 8.56,-57.06l0 -323.57c0,-23.14 -2.91,-42.65 -8.75,-58.31 -6.02,-15.69 -15.3,-29.18 -28.06,-40.67l11.67 0c17.5,0 35.91,-0.9 55.42,-2.91 19.32,-2 40.64,-4.92 63.8,-8.74l8.02 82.76c15.68,-27.72 33.55,-48.31 53.98,-61.61 20.22,-13.31 43.37,-20.06 69.44,-20.06 6.38,0 12.93,0.36 19.69,1.1 6.75,0.72 15.13,2 25.16,4.19l0 102.63zm-782.02 76.92l277.62 0c-2.19,-36.63 -15.67,-66.72 -40.65,-90.06 -24.8,-23.32 -55.78,-34.99 -92.78,-34.99 -39.92,0 -72.74,11.12 -98.26,33.36 -25.7,22.24 -41.02,52.86 -45.94,91.69zm-7.47 73.11c2.56,64.7 22.98,116.3 61.62,154.58 38.63,38.28 89.13,57.42 151.47,57.42 27.7,0 57.06,-4.56 87.87,-13.68 30.81,-9.11 64.17,-22.96 100.08,-41.92l-57.79 100.43c-30.79,11.5 -59.79,20.06 -86.39,25.72 -26.81,5.65 -51.78,8.56 -75.29,8.56 -86.59,0 -157.68,-26.25 -213.65,-78.57 -55.96,-52.32 -83.85,-118.67 -83.85,-199.24 0,-82.59 25.7,-150.39 77.11,-203.26 51.58,-52.86 117.2,-79.3 197.41,-79.3 73.65,0 132.16,24.07 175.72,72.37 43.39,48.31 65.62,113.93 66.72,196.88l-401.04 0zm-580.96 190.12c13.85,7.84 28.08,13.67 42.66,17.32 14.58,3.82 30.26,5.65 47.03,5.65 60.16,0 107.74,-18.05 142.92,-53.96 34.99,-35.92 52.5,-84.57 52.5,-145.83 0,-55.43 -14.4,-100.45 -43.21,-134.72 -28.8,-34.44 -66.53,-51.59 -113.2,-51.59 -13.11,0 -27.52,1.83 -43.2,5.65 -15.67,3.65 -33.35,9.12 -52.86,16.23l55.96 -99.35c11.85,-1.63 22.43,-3.1 31.9,-4.01 9.3,-0.91 18.41,-1.27 26.8,-1.27 74.56,0 134.16,23.52 179,70.72 44.83,47.22 67.26,109.92 67.26,188.3 0,88.59 -28.98,158.96 -87.13,211.27 -57.96,52.33 -136.53,78.56 -235.52,78.56 -26.25,0 -56.88,-2.19 -91.87,-6.73 -34.81,-4.38 -74.19,-10.94 -117.94,-19.33 12.76,-11.48 22.07,-24.97 28.07,-40.65 5.84,-15.67 8.75,-34.99 8.75,-58.15l0 -559.81c0,-23.15 -2.91,-42.47 -8.75,-57.97 -6.01,-15.48 -15.31,-28.8 -28.07,-40.28l138.9 0 0 679.93zm-972.52 -14.94c0,22.79 2.93,41.75 8.75,57.06 6.03,15.31 15.31,28.8 28.07,40.1l-174.64 0c13.13,-11.3 22.61,-24.8 28.26,-40.1 5.65,-15.31 8.57,-34.27 8.57,-57.06l0 -323.57c0,-23.14 -2.92,-42.65 -8.75,-58.31 -6.01,-15.69 -15.31,-29.18 -28.07,-40.67l11.68 0c17.49,0 35.92,-0.9 55.41,-2.91 19.33,-2 40.65,-4.92 63.81,-8.74l4.74 82.76c26.43,-28.07 53.22,-48.85 80.76,-62.53 27.34,-13.48 56.15,-20.22 86.4,-20.22 36.28,0 69.08,7.46 98.25,22.41 29.18,14.96 55.42,37.73 78.93,68.37 32.44,-31.35 63.25,-54.32 92.61,-68.91 29.33,-14.57 59.43,-21.86 90.05,-21.86 57.24,0 103.73,17.49 139.63,52.32 35.75,34.99 53.61,80.94 53.61,137.8l0 244.09c0,22.79 2.91,41.75 8.74,57.06 6.02,15.31 15.5,28.8 28.62,40.1l-175.17 0c13.12,-11.3 22.6,-24.8 28.62,-40.1 5.83,-15.31 8.74,-34.27 8.74,-57.06l0 -185.93c0,-56.51 -10.2,-97.71 -30.63,-123.59 -20.58,-25.7 -53.04,-38.65 -97.51,-38.65 -46.12,0 -79.3,11.85 -99.53,35.55 -20.05,23.69 -30.08,63.25 -30.08,118.85l0 193.78c0,22.79 2.93,41.75 8.57,57.06 5.66,15.31 15.13,28.8 28.25,40.1l-176.26 0c13.11,-11.3 22.6,-24.8 28.61,-40.1 5.83,-15.31 8.75,-34.27 8.75,-57.06l0 -185.93c0,-56.51 -10.2,-97.71 -30.62,-123.59 -20.59,-25.7 -53.04,-38.65 -97.52,-38.65 -46.11,0 -79.3,11.85 -99.53,35.55 -20.06,23.69 -30.09,63.25 -30.09,118.85l0 193.78zm-612.66 -248.28l277.62 0c-2.19,-36.63 -15.69,-66.72 -40.65,-90.06 -24.79,-23.32 -55.79,-34.99 -92.78,-34.99 -39.92,0 -72.74,11.12 -98.26,33.36 -25.7,22.24 -41.02,52.86 -45.94,91.69zm-7.47 73.11c2.55,64.7 22.96,116.3 61.61,154.58 38.64,38.28 89.13,57.42 151.48,57.42 27.72,0 57.06,-4.56 87.87,-13.68 30.81,-9.11 64.16,-22.96 100.09,-41.92l-57.8 100.43c-30.8,11.5 -59.79,20.06 -86.4,25.72 -26.8,5.65 -51.76,8.56 -75.29,8.56 -86.58,0 -157.67,-26.25 -213.64,-78.57 -55.96,-52.32 -83.85,-118.67 -83.85,-199.24 0,-82.59 25.7,-150.39 77.11,-203.26 51.58,-52.86 117.2,-79.3 197.41,-79.3 73.64,0 132.15,24.07 175.73,72.37 43.38,48.31 65.62,113.93 66.72,196.88l-401.04 0zm-769.99 499.83c13.13,-11.48 22.6,-24.79 28.25,-40.1 5.66,-15.31 8.57,-34.27 8.57,-57.06l0 -551.24c0,-23.15 -2.91,-42.48 -8.75,-58.14 -6.01,-15.69 -15.3,-29.18 -28.06,-40.67l13.85 0c19.33,0 38.65,-0.9 58.33,-2.91 19.51,-2 39.56,-4.92 59.78,-8.74l4.75 82.76c26.8,-29.17 55.96,-51.04 87.85,-65.62 31.91,-14.59 65.99,-21.87 102.27,-21.87 71.82,0 132.52,25.33 181.74,76 49.4,50.86 74.01,113.38 74.01,187.77 0,48.86 -9.48,93.33 -28.62,133.79 -18.96,40.3 -46.3,73.83 -81.85,100.07 -23.51,17.86 -48.49,30.99 -74.73,39.74 -26.44,8.76 -54.69,13.14 -84.96,13.14 -12.76,0 -26.24,-0.92 -40.09,-2.75 -13.85,-1.63 -27.72,-4.19 -41.57,-7.46l-64.72 -93.87c22.07,10.02 42.67,17.32 61.43,22.06 18.97,4.92 36.65,7.29 53.41,7.29 58.7,0 104.45,-17.13 137.46,-51.21 32.99,-34.28 49.4,-82.05 49.4,-143.11 0,-58.88 -16.41,-106.99 -49.04,-144.72 -32.81,-37.74 -74.2,-56.7 -124.5,-56.7 -21.33,0 -41.57,3.82 -60.88,11.3 -19.14,7.47 -36.46,18.23 -51.77,32.44 -15.69,14.23 -26.61,32.28 -33,53.78 -6.37,21.5 -9.66,57.96 -9.66,109.19l0 32.63 0 347.07c0,22.79 2.93,41.74 8.76,57.06 6,15.31 15.31,28.62 28.07,40.1l-175.73 0zm-540.49 -502.93c0,64.71 16.59,117.2 49.94,157.13 33.36,40.09 76.57,60.16 129.98,60.16 50.31,0 91.33,-17.86 123.23,-53.59 31.9,-35.91 47.76,-82.02 47.76,-138.72 0,-60.88 -16.95,-111.02 -51.04,-150.57 -33.91,-39.56 -77.1,-59.24 -129.43,-59.24 -49.22,0 -89.87,17.5 -122.13,52.69 -32.27,34.99 -48.31,79.1 -48.31,132.15zm-114.84 21.87c0,-39.19 7.47,-76.01 22.23,-110.28 14.79,-34.45 36.28,-65.08 64.9,-92.23 27.34,-25.52 59.43,-45.58 96.07,-59.79 36.63,-14.22 74.74,-21.32 114.29,-21.32 41.02,0 78.02,6.56 111.02,19.68 33.18,13.3 63.07,33.36 89.86,60.33 26.24,26.44 46.48,56.15 60.33,88.96 13.85,33 20.79,67.44 20.79,103.35 0,39.56 -7.3,76.57 -21.89,110.84 -14.57,34.45 -36.09,64.9 -64.7,91.69 -26.99,25.16 -58.88,44.84 -95.53,58.88 -36.64,14.04 -74.74,21.14 -114.29,21.14 -41.74,0 -78.93,-6.37 -111.57,-19.13 -32.81,-12.94 -62.7,-32.81 -89.86,-59.98 -26.25,-26.24 -46.48,-56.14 -60.51,-89.32 -14.04,-33.35 -21.15,-67.62 -21.15,-102.81zm-95.52 -488.17c-16.05,13.85 -27.35,29.71 -33.91,47.57 -6.57,17.68 -9.83,45.39 -9.83,82.76l0 628.53c-26.07,-0.73 -50.69,-9.11 -74.02,-25.16 -23.15,-16.06 -52.5,-46.48 -87.67,-91.33l-383.18 -482.7 0 450.63c0,38.82 3.29,67.08 9.67,84.39 6.38,17.51 17.31,33.19 32.98,47.03l-168.06 0c15.68,-14.21 26.8,-30.26 33.54,-48.3 6.75,-18.06 10.22,-45.76 10.22,-83.13l0 -479.97c0,-37.37 -3.46,-65.09 -10.22,-82.76 -6.74,-17.86 -17.86,-33.72 -33.54,-47.57l150.57 0 439.13 556.89 0 -426.55c0,-37.37 -3.46,-65.09 -10.2,-82.76 -6.75,-17.86 -17.86,-33.72 -33.54,-47.57l168.07 0zm-1531.96 644.57c0,22.79 2.93,41.75 8.76,57.06 6.02,15.31 15.3,28.8 28.06,40.1l-174.63 0c13.14,-11.3 22.61,-24.8 28.26,-40.1 5.66,-15.31 8.56,-34.27 8.56,-57.06l0 -554.88c0,-22.96 -2.91,-41.93 -8.56,-57.24 -5.65,-15.31 -15.12,-28.62 -28.26,-40.1l9.68 0c15.3,0 33.35,-1.1 54.13,-3.29 20.79,-2 44.84,-5.28 71.83,-9.47l0 313.54c26.78,-28.44 53.59,-49.4 80.75,-62.7 26.98,-13.31 55.78,-20.06 86.4,-20.06 57.61,0 104.63,17.49 140.74,52.67 36.09,35 54.12,80.94 54.12,137.45l0 244.09c0,22.79 2.93,41.75 8.59,57.06 5.65,15.31 15.12,28.8 28.24,40.1l-176.26 0c13.11,-11.3 22.6,-24.8 28.62,-40.1 5.83,-15.31 8.74,-34.27 8.74,-57.06l0 -185.93c0,-56.87 -10.2,-98.43 -30.62,-124.32 -20.59,-26.06 -53.05,-39.01 -97.52,-39.01 -46.11,0 -79.3,11.84 -99.52,35.73 -20.07,23.88 -30.09,63.8 -30.09,119.57l0 193.96zm-351.45 27.16c-26.79,28.44 -53.59,49.4 -80.75,63.07 -26.98,13.49 -55.76,20.23 -86.4,20.23 -57.24,0 -104.09,-17.68 -140.36,-53.22 -36.28,-35.36 -54.51,-81.48 -54.51,-138.54l0 -242.44c0,-23.15 -2.92,-42.48 -8.74,-58.14 -6.03,-15.69 -15.31,-29.36 -28.07,-40.67l14.94 0c20.6,0 41.38,-0.9 61.98,-2.91 20.61,-2 41.2,-4.92 61.44,-8.74l0.54 296.22c0,56.31 10.22,97.34 30.44,123.22 20.23,25.7 52.69,38.66 97.16,38.66 46.48,0 79.85,-11.85 100.08,-35.74 20.05,-23.89 30.07,-63.8 30.07,-119.59l0 -192.31c0,-23.15 -2.92,-42.48 -8.74,-58.14 -6.03,-15.69 -15.5,-29.36 -28.62,-40.67l13.31 0c18.95,0 38.64,-0.9 59.06,-2.91 20.41,-2 42.48,-4.92 65.99,-8.74l0 420.72c0,22.78 2.92,41.93 8.57,57.23 5.65,15.32 15.13,28.61 28.25,40.11l-9.66 0c-15.67,0 -32.81,1.09 -51.75,3.11 -18.8,2.18 -41.76,5.64 -68.92,10.19l-5.3 -70zm-511.5 -27.16c0,22.79 2.93,41.75 8.75,57.06 6.03,15.31 15.32,28.62 28.08,40.1l-173.54 0c13.13,-11.48 22.61,-24.8 28.26,-40.1 5.65,-15.31 8.56,-34.27 8.56,-57.06l0 -555.07c0,-22.78 -2.92,-41.74 -8.56,-57.06 -5.65,-15.31 -15.13,-28.62 -28.26,-40.1l11.67 0c11.48,0 25.51,-0.72 41.92,-2.37 16.58,-1.64 44.31,-5.1 83.12,-10.39l0 664.99zm-351.45 27.16c-26.8,28.44 -53.59,49.4 -80.76,63.07 -26.98,13.49 -55.77,20.23 -86.39,20.23 -57.24,0 -104.09,-17.68 -140.37,-53.22 -36.28,-35.36 -54.51,-81.48 -54.51,-138.54l0 -242.44c0,-23.15 -2.92,-42.48 -8.74,-58.14 -6.02,-15.69 -15.31,-29.36 -28.07,-40.67l14.94 0c20.6,0 41.38,-0.9 61.98,-2.91 20.6,-2 41.19,-4.92 61.43,-8.74l0.55 296.22c0,56.31 10.2,97.34 30.44,123.22 20.23,25.7 52.68,38.66 97.15,38.66 46.48,0 79.85,-11.85 100.09,-35.74 20.06,-23.89 30.07,-63.8 30.07,-119.59l0 -192.31c0,-23.15 -2.91,-42.48 -8.74,-58.14 -6.02,-15.69 -15.5,-29.36 -28.62,-40.67l13.3 0c18.96,0 38.65,-0.9 59.07,-2.91 20.42,-2 42.48,-4.92 65.98,-8.74l0 420.72c0,22.78 2.92,41.93 8.57,57.23 5.66,15.32 15.13,28.61 28.25,40.11l-9.66 0c-15.68,0 -32.81,1.09 -51.77,3.11 -18.77,2.18 -41.73,5.64 -68.91,10.19l-5.28 -70zm-1055.09 297.5c13.13,-11.48 22.61,-24.79 28.25,-40.1 5.66,-15.31 8.57,-34.27 8.57,-57.06l0 -551.24c0,-23.15 -2.92,-42.48 -8.75,-58.14 -6.01,-15.69 -15.31,-29.18 -28.07,-40.67l13.87 0c19.31,0 38.65,-0.9 58.33,-2.91 19.5,-2 39.56,-4.92 59.79,-8.74l4.74 82.76c26.79,-29.17 55.96,-51.04 87.85,-65.62 31.91,-14.59 65.99,-21.87 102.27,-21.87 71.82,0 132.52,25.33 181.74,76 49.4,50.86 74.01,113.38 74.01,187.77 0,48.86 -9.48,93.33 -28.62,133.79 -18.96,40.3 -46.31,73.83 -81.85,100.07 -23.5,17.86 -48.48,30.99 -74.74,39.74 -26.42,8.76 -54.69,13.14 -84.94,13.14 -12.76,0 -26.24,-0.92 -40.11,-2.75 -13.85,-1.63 -27.71,-4.19 -41.56,-7.46l-64.72 -93.87c22.07,10.02 42.66,17.32 61.44,22.06 18.96,4.92 36.64,7.29 53.41,7.29 58.7,0 104.44,-17.13 137.44,-51.21 32.99,-34.28 49.4,-82.05 49.4,-143.11 0,-58.88 -16.41,-106.99 -49.03,-144.72 -32.81,-37.74 -74.2,-56.7 -124.5,-56.7 -21.33,0 -41.57,3.82 -60.89,11.3 -19.14,7.47 -36.46,18.23 -51.77,32.44 -15.69,14.23 -26.63,32.28 -33,53.78 -6.38,21.5 -9.66,57.96 -9.66,109.19l0 32.63 0 347.07c0,22.79 2.92,41.74 8.75,57.06 6.01,15.31 15.3,28.62 28.06,40.1l-175.73 0zm-474.85 -572.94l277.62 0c-2.19,-36.63 -15.68,-66.72 -40.65,-90.06 -24.8,-23.32 -55.78,-34.99 -92.78,-34.99 -39.92,0 -72.74,11.12 -98.26,33.36 -25.7,22.24 -41.02,52.86 -45.94,91.69zm-7.47 73.11c2.55,64.7 22.96,116.3 61.61,154.58 38.64,38.28 89.13,57.42 151.48,57.42 27.7,0 57.06,-4.56 87.87,-13.68 30.81,-9.11 64.16,-22.96 100.08,-41.92l-57.79 100.43c-30.8,11.5 -59.8,20.06 -86.4,25.72 -26.8,5.65 -51.76,8.56 -75.29,8.56 -86.58,0 -157.67,-26.25 -213.64,-78.57 -55.96,-52.32 -83.85,-118.67 -83.85,-199.24 0,-82.59 25.7,-150.39 77.11,-203.26 51.58,-52.86 117.2,-79.3 197.41,-79.3 73.64,0 132.15,24.07 175.73,72.37 43.38,48.31 65.61,113.93 66.72,196.88l-401.04 0zm-691.97 255.75l-35.36 -134.53c43.2,28.81 84.95,50.13 125.6,64.16 40.65,14.05 80.75,21.15 120.67,21.15 51.04,0 91.87,-10.93 122.86,-32.81 31,-21.88 46.49,-50.31 46.49,-85.13 0,-10.02 -1.64,-19.87 -4.74,-29.89 -3.29,-9.83 -7.84,-19.33 -14.04,-28.26 -13.48,-20.23 -58.87,-49.22 -136.17,-87.14 -19.5,-9.11 -34.63,-16.4 -45.39,-21.87 -72.18,-36.27 -121.76,-69.63 -148.74,-100.25 -26.81,-30.62 -40.29,-67.09 -40.29,-109 0,-60.16 24.6,-107.92 73.64,-143.46 49.21,-35.37 116.48,-53.05 201.98,-53.05 24.61,0 51.59,1.63 81.3,4.73 29.53,3.3 61.61,8.2 96.06,14.95l0 124.5c-30.62,-23.16 -61.43,-40.47 -92.42,-51.77 -30.98,-11.49 -63.25,-17.14 -96.61,-17.14 -42.46,0 -76.56,9.11 -102.44,27.17 -25.7,18.22 -38.65,41.93 -38.65,71.09 0,26.06 10.2,49.02 30.44,68.9 20.24,19.87 65.81,46.66 136.71,80.02 4.01,1.82 10.04,4.74 18.24,8.57 59.78,27.54 104.45,52.69 133.98,75.83 22.06,17.14 39.37,37.93 51.57,62.53 12.22,24.6 18.43,50.68 18.43,78.38 0,63.8 -29.17,117.76 -87.67,162.06 -58.34,44.29 -131.26,66.53 -218.94,66.53 -28.07,0 -58.33,-3.1 -90.78,-9.11 -32.44,-6.02 -67.62,-15.13 -105.72,-27.16zm4348 -1562.58c0,-18.04 6.38,-33.54 19.14,-46.3 12.94,-12.93 28.43,-19.33 46.48,-19.33 17.86,0 32.99,6.4 45.39,19.33 12.57,12.76 18.77,28.26 18.77,46.3 0,18.6 -6.2,34.27 -18.41,46.85 -12.2,12.57 -27.53,18.96 -45.75,18.96 -18.41,0 -34.07,-6.39 -46.67,-19.33 -12.57,-12.77 -18.95,-28.24 -18.95,-46.48zm120.13 561.45c0,22.79 2.93,41.74 8.75,57.07 6.02,15.31 15.5,28.61 28.62,40.11l-174.09 0c13.13,-11.49 22.61,-24.8 28.62,-40.11 5.83,-15.32 8.75,-34.28 8.75,-57.07l0 -323.74c0,-23.15 -3.1,-42.46 -9.11,-58.15 -6.01,-15.69 -15.5,-29.17 -28.26,-40.66 30.63,-0.72 57.06,-2 79.11,-4.01 22.07,-1.81 41.2,-4.56 57.61,-7.66l0 434.22zm-362.02 -240.8c0,-37 -13.31,-67.99 -39.72,-92.97 -26.63,-24.97 -59.62,-37.36 -99.18,-37.36 -37,0 -66.54,10.2 -88.59,30.62 -22.06,20.59 -33.18,47.57 -33.18,80.93 0,37.92 13.48,69.46 40.65,95.16 26.97,25.7 60.14,38.46 99.35,38.46 34.81,0 63.62,-10.93 86.41,-32.63 22.78,-21.69 34.26,-49.03 34.26,-82.2zm196.5 -205.63l-33.17 83.32c-2.91,0.36 -6.2,0.71 -10.2,0.91 -3.83,0.19 -10.03,0.19 -18.6,0.19 -15.31,0 -33.17,-0.73 -53.39,-2.38 -20.24,-1.63 -43.22,-4.01 -68.92,-7.29 33.54,18.22 58.15,38.46 74.2,60.7 16.04,22.24 24.06,47.77 24.06,76.56 0,33.55 -10.22,63.27 -30.63,89.51 -20.58,26.07 -49.76,46.67 -87.85,61.62 -30.99,12.57 -64.34,20.78 -99.9,24.6 -2.91,0.37 -4.73,0.55 -5.82,0.55l-3.29 0.55c-38.83,5.28 -58.15,15.86 -58.15,31.53 0,7.85 2.92,13.31 8.75,16.78 6.02,3.28 15.86,5.1 29.72,5.1 11.3,0 26.06,-0.55 44.1,-1.46 17.86,-0.91 30.07,-1.27 36.48,-1.27 74.71,0 135.24,14.94 181.37,44.84 46.11,29.9 69.09,68.17 69.09,114.84 0,59.43 -29.89,108.28 -89.5,146.38 -59.6,38.1 -136.89,57.06 -231.87,57.06 -86.22,0 -157.32,-15.13 -213.46,-45.57 -55.96,-30.44 -84.03,-68.18 -84.03,-113.02 0,-25.7 10.02,-47.03 29.89,-63.98 19.87,-17.14 45.03,-25.7 75.29,-25.7 7.11,0 15.12,0.92 24.24,2.92 9.11,2.01 19.87,5.1 32.26,9.3 -15.3,2.2 -26.81,8 -34.81,17.68 -8.02,9.66 -12.03,22.79 -12.03,39.56 0,31.54 19.32,59.06 57.97,82.22 38.63,23.14 86.04,34.63 142.18,34.63 55.96,0 102.81,-12.76 140.54,-38.09 37.73,-25.52 56.5,-56.15 56.5,-92.05 0,-34.65 -16.22,-60.9 -48.66,-79.12 -32.27,-18.05 -79.3,-27.17 -140.91,-27.17 -4.92,0 -19.15,0.36 -42.66,1.1 -23.51,0.72 -44.47,1.09 -63.07,1.09 -28.44,0 -50.32,-5.1 -65.62,-15.31 -15.31,-10.2 -22.97,-24.62 -22.97,-43.57 0,-17.68 7.47,-32.99 22.25,-45.57 14.75,-12.75 36.44,-22.23 65.24,-28.61 -48.66,-10.39 -87.32,-31.54 -115.93,-63.62 -28.44,-32.09 -42.66,-69.63 -42.66,-112.65 0,-58.33 23.16,-104.82 69.46,-139.09 46.31,-34.46 109.74,-51.59 190.67,-51.59 20.22,0 49.76,0.91 88.41,2.92 38.64,2 67.08,2.91 85.67,2.91 15.68,0 33.91,-0.91 55.05,-2.91 20.96,-2.01 45.94,-5.1 74.74,-9.31zm-1101.2 268.16c0,64.7 16.59,117.21 49.95,157.13 33.36,40.11 76.57,60.16 129.98,60.16 50.3,0 91.32,-17.86 123.21,-53.6 31.91,-35.91 47.77,-82.02 47.77,-138.71 0,-60.89 -16.96,-111.02 -51.04,-150.57 -33.92,-39.57 -77.11,-59.24 -129.42,-59.24 -49.22,0 -89.88,17.5 -122.15,52.68 -32.25,35 -48.3,79.11 -48.3,132.16zm-114.85 21.86c0,-39.18 7.47,-75.99 22.23,-110.27 14.78,-34.46 36.28,-65.09 64.89,-92.24 27.36,-25.51 59.44,-45.57 96.07,-59.79 36.64,-14.22 74.74,-21.33 114.3,-21.33 41.02,0 78.01,6.57 111.01,19.69 33.18,13.31 63.07,33.36 89.87,60.34 26.24,26.43 46.47,56.15 60.33,88.96 13.85,32.99 20.79,67.44 20.79,103.36 0,39.56 -7.3,76.56 -21.88,110.83 -14.58,34.44 -36.09,64.89 -64.71,91.69 -26.98,25.16 -58.87,44.84 -95.52,58.88 -36.63,14.03 -74.72,21.14 -114.3,21.14 -41.72,0 -78.92,-6.38 -111.55,-19.14 -32.81,-12.94 -62.7,-32.81 -89.87,-59.98 -26.25,-26.24 -46.48,-56.14 -60.52,-89.32 -14.04,-33.35 -21.15,-67.62 -21.15,-102.82zm-109.37 156.41c0,22.79 2.93,41.74 8.75,57.07 6.03,15.31 15.31,28.61 28.07,40.11l-173.54 0c13.13,-11.49 22.61,-24.8 28.26,-40.11 5.66,-15.32 8.57,-34.28 8.57,-57.07l0 -555.07c0,-22.78 -2.92,-41.73 -8.57,-57.05 -5.65,-15.31 -15.13,-28.62 -28.26,-40.11l11.67 0c11.49,0 25.52,-0.72 41.93,-2.36 16.59,-1.65 44.31,-5.1 83.12,-10.4l0 665zm-678.29 -178.28c0,64.7 16.59,117.21 49.94,157.13 33.36,40.11 76.56,60.16 129.98,60.16 50.31,0 91.32,-17.86 123.22,-53.6 31.91,-35.91 47.77,-82.02 47.77,-138.71 0,-60.89 -16.96,-111.02 -51.04,-150.57 -33.91,-39.57 -77.11,-59.24 -129.43,-59.24 -49.22,0 -89.87,17.5 -122.15,52.68 -32.25,35 -48.3,79.11 -48.3,132.16zm-114.85 21.86c0,-39.18 7.47,-75.99 22.24,-110.27 14.77,-34.46 36.27,-65.09 64.89,-92.24 27.36,-25.51 59.43,-45.57 96.07,-59.79 36.64,-14.22 74.74,-21.33 114.3,-21.33 41.01,0 78.01,6.57 111.01,19.69 33.18,13.31 63.08,33.36 89.87,60.34 26.24,26.43 46.48,56.15 60.33,88.96 13.85,32.99 20.79,67.44 20.79,103.36 0,39.56 -7.3,76.56 -21.88,110.83 -14.59,34.44 -36.09,64.89 -64.72,91.69 -26.97,25.16 -58.87,44.84 -95.52,58.88 -36.63,14.03 -74.72,21.14 -114.3,21.14 -41.73,0 -78.92,-6.38 -111.55,-19.14 -32.81,-12.94 -62.7,-32.81 -89.86,-59.98 -26.25,-26.24 -46.48,-56.14 -60.52,-89.32 -14.04,-33.35 -21.15,-67.62 -21.15,-102.82zm-469.21 156.41c0,22.79 2.93,41.74 8.76,57.07 6.02,15.31 15.31,28.79 28.07,40.11l-174.64 0c13.13,-11.32 22.61,-24.8 28.26,-40.11 5.65,-15.32 8.57,-34.28 8.57,-57.07l0 -323.57c0,-23.14 -2.93,-42.64 -8.76,-58.33 -6.02,-15.69 -15.31,-29.17 -28.07,-40.66l11.68 0c17.49,0 35.91,-0.91 55.41,-2.91 19.32,-2.01 40.65,-4.93 63.81,-8.76l4.74 82.76c26.79,-28.43 53.59,-49.39 80.76,-62.7 26.97,-13.31 55.77,-20.06 86.4,-20.06 57.6,0 104.63,17.51 140.73,52.69 36.09,34.99 54.13,80.91 54.13,137.44l0 244.08c0,22.79 2.93,41.74 8.57,57.07 5.66,15.31 15.13,28.79 28.26,40.11l-176.29 0c13.13,-11.32 22.61,-24.8 28.63,-40.11 5.83,-15.32 8.74,-34.28 8.74,-57.07l0 -185.93c0,-56.51 -10.21,-97.7 -30.63,-123.59 -20.59,-25.72 -53.04,-38.64 -97.52,-38.64 -46.12,0 -79.3,11.84 -99.53,35.55 -20.06,23.69 -30.08,63.25 -30.08,118.85l0 193.78zm-671.37 97.17c13.13,-11.49 22.6,-24.8 28.25,-40.11 5.66,-15.32 8.56,-34.28 8.56,-57.07l0 -555.07c0,-22.78 -2.91,-41.73 -8.56,-57.05 -5.65,-15.31 -15.12,-28.62 -28.25,-40.11l9.67 0c14.94,0 32.07,-0.91 51.4,-2.91 19.5,-2.01 45.03,-5.29 76.73,-9.85l0 665c0,22.79 2.93,41.74 8.76,57.07 6.02,15.31 15.3,28.61 28.07,40.11l-174.63 0zm290.4 -519.72l160.21 0 -179.37 220.03 170.26 219.48c4.73,6.56 22.24,24.79 52.87,55.05 10.75,10.75 19.13,19.14 25.16,25.17l-105.18 0c-16.77,0 -31.72,-4.38 -44.84,-13.13 -13.13,-8.75 -28.81,-25.52 -47.03,-50.49l-161.7 -226.41 110.47 -125.6c10.76,-12.76 19.16,-24.97 25.33,-36.81 6.2,-11.67 9.31,-21.33 9.31,-28.8 0,-5.29 -1.11,-11.3 -3.65,-17.69 -2.56,-6.38 -6.39,-13.31 -11.84,-20.79zm-765.26 174.26l277.62 0c-2.19,-36.63 -15.68,-66.7 -40.64,-90.04 -24.79,-23.33 -55.79,-35 -92.79,-35 -39.92,0 -72.74,11.12 -98.26,33.35 -25.7,22.24 -41.02,52.87 -45.94,91.69zm-7.47 73.11c2.56,64.71 22.98,116.29 61.61,154.58 38.64,38.28 89.13,57.41 151.49,57.41 27.71,0 57.04,-4.56 87.85,-13.67 30.81,-9.11 64.16,-22.96 100.08,-41.93l-57.79 100.44c-30.8,11.49 -59.79,20.06 -86.4,25.7 -26.8,5.66 -51.77,8.57 -75.29,8.57 -86.58,0 -157.67,-26.24 -213.64,-78.57 -55.96,-52.31 -83.85,-118.66 -83.85,-199.23 0,-82.59 25.7,-150.39 77.11,-203.26 51.58,-52.86 117.21,-79.3 197.41,-79.3 73.65,0 132.16,24.06 175.73,72.37 43.38,48.31 65.63,113.94 66.72,196.88l-401.04 0zm-256.48 140.91c0,37.36 3.46,65.07 10.2,83.12 6.75,17.86 17.88,34.09 33.55,48.32l-203.44 0c16.04,-14.23 27.35,-30.46 33.92,-48.32 6.56,-18.05 9.84,-45.76 9.84,-83.12l0 -529.19 -59.79 0c-41.38,0 -74.74,3.28 -100.44,9.66 -25.71,6.39 -46.12,16.78 -61.44,30.99l36.82 -121.78 530.46 0 -34.82 119.6c-10.94,-13.12 -25.52,-22.98 -43.38,-29.17 -18.05,-6.2 -40.85,-9.3 -68.18,-9.3l-83.31 0 0 529.19zm2804.63 -1233.01l-71.09 0 0 -38.46c42.83,-3.82 76.38,-23.52 100.8,-59.05 24.24,-35.37 37.35,-83.5 39.2,-144.39l31.55 0 0 166.07 154.39 0 0 97.15c-8.57,-7.45 -18.96,-12.93 -31.18,-16.21 -12.4,-3.45 -28.44,-5.11 -48.49,-5.11l-74.72 0 0 252.67c0,46.3 7.64,80.21 23.13,101.89 15.5,21.69 39.57,32.63 72,32.63 7.49,-0.36 15.31,-1.09 23.53,-2.37 8.19,-1.28 16.4,-2.91 24.42,-5.1l-52.32 76.37c-0.73,0 -1.64,0 -2.54,0 -14.41,1.46 -24.61,2.19 -30.99,2.19 -52.5,0 -91.87,-13.13 -118.13,-39.57 -26.44,-26.24 -39.55,-65.25 -39.55,-117.02l0 -301.7zm-261.59 373.88c-26.79,28.44 -53.59,49.4 -80.75,63.08 -26.98,13.49 -55.78,20.23 -86.4,20.23 -57.24,0 -104.09,-17.7 -140.37,-53.24 -36.27,-35.36 -54.51,-81.48 -54.51,-138.53l0 -242.44c0,-23.17 -2.91,-42.47 -8.74,-58.15 -6.02,-15.69 -15.31,-29.35 -28.07,-40.66l14.94 0c20.6,0 41.38,-0.91 61.98,-2.92 20.6,-2 41.2,-4.92 61.44,-8.75l0.54 296.22c0,56.33 10.2,97.35 30.45,123.24 20.23,25.7 52.69,38.64 97.15,38.64 46.49,0 79.85,-11.84 100.08,-35.72 20.06,-23.88 30.08,-63.8 30.08,-119.58l0 -192.31c0,-23.17 -2.92,-42.47 -8.74,-58.15 -6.03,-15.69 -15.5,-29.35 -28.63,-40.66l13.31 0c18.94,0 38.64,-0.91 59.06,-2.92 20.42,-2 42.48,-4.92 65.99,-8.75l0 420.72c0,22.79 2.91,41.94 8.56,57.25 5.65,15.31 15.12,28.61 28.24,40.09l-9.66 0c-15.68,0 -32.8,1.1 -51.77,3.1 -18.77,2.19 -41.73,5.65 -68.9,10.2l-5.29 -70zm-726.23 -373.88l-71.09 0 0 -38.46c42.83,-3.82 76.37,-23.52 100.79,-59.05 24.25,-35.37 37.37,-83.5 39.2,-144.39l31.53 0 0 166.07 154.4 0 0 97.15c-8.57,-7.45 -18.96,-12.93 -31.17,-16.21 -12.39,-3.45 -28.44,-5.11 -48.49,-5.11l-74.74 0 0 252.67c0,46.3 7.66,80.21 23.15,101.89 15.49,21.69 39.56,32.63 72,32.63 7.48,-0.36 15.31,-1.09 23.52,-2.37 8.2,-1.28 16.41,-2.91 24.42,-5.1l-52.31 76.37c-0.73,0 -1.64,0 -2.56,0 -14.39,1.46 -24.61,2.19 -30.98,2.19 -52.52,0 -91.87,-13.13 -118.13,-39.57 -26.43,-26.24 -39.56,-65.25 -39.56,-117.02l0 -301.7zm-288.74 -214.73c0,-18.05 6.37,-33.54 19.14,-46.3 12.94,-12.94 28.43,-19.33 46.49,-19.33 17.85,0 32.98,6.39 45.38,19.33 12.57,12.76 18.77,28.25 18.77,46.3 0,18.59 -6.19,34.27 -18.41,46.85 -12.22,12.57 -27.53,18.96 -45.74,18.96 -18.43,0 -34.09,-6.39 -46.68,-19.33 -12.58,-12.76 -18.96,-28.25 -18.96,-46.48zm120.13 561.45c0,22.8 2.92,41.76 8.75,57.07 6.01,15.31 15.5,28.62 28.61,40.09l-174.08 0c13.12,-11.47 22.6,-24.79 28.62,-40.09 5.82,-15.31 8.76,-34.27 8.76,-57.07l0 -323.74c0,-23.17 -3.1,-42.47 -9.12,-58.15 -6.02,-15.69 -15.5,-29.17 -28.26,-40.66 30.62,-0.72 57.06,-2 79.11,-4.01 22.06,-1.81 41.2,-4.56 57.6,-7.66l0 434.21zm-470.48 -346.72l-71.09 0 0 -38.46c42.83,-3.82 76.37,-23.52 100.79,-59.05 24.26,-35.37 37.38,-83.5 39.21,-144.39l31.53 0 0 166.07 154.39 0 0 97.15c-8.57,-7.45 -18.94,-12.93 -31.16,-16.21 -12.4,-3.45 -28.45,-5.11 -48.49,-5.11l-74.74 0 0 252.67c0,46.3 7.66,80.21 23.15,101.89 15.49,21.69 39.56,32.63 72,32.63 7.49,-0.36 15.33,-1.09 23.52,-2.37 8.2,-1.28 16.41,-2.91 24.43,-5.1l-52.32 76.37c-0.73,0 -1.64,0 -2.56,0 -14.39,1.46 -24.6,2.19 -30.98,2.19 -52.51,0 -91.87,-13.13 -118.12,-39.57 -26.44,-26.24 -39.56,-65.25 -39.56,-117.02l0 -301.7zm-528.09 433.13l-42.65 -118.48c40.28,26.97 77.45,47.21 111.55,60.33 34.28,13.12 66.72,19.69 97.36,19.69 38.09,0 68.53,-7.47 91.49,-22.24 22.97,-14.76 34.47,-34.27 34.47,-58.87 0,-30.63 -39.03,-61.43 -117.04,-92.43 -18.96,-7.3 -33.54,-13.48 -43.75,-18.04 -45.94,-19.33 -79.29,-40.65 -100.26,-64.17 -20.78,-23.51 -31.17,-51.22 -31.17,-83.3 0,-45.94 18.23,-82.4 54.51,-109.39 36.27,-27.17 86.03,-40.64 149.11,-40.64 20.23,0 42.47,1.46 66.71,4.56 24.24,3.09 49.59,7.29 76.39,13.12l0 92.96c-27.17,-13.48 -53.41,-23.87 -79.11,-30.98 -25.7,-7.1 -50.32,-10.75 -74.2,-10.75 -27.15,0 -48.67,5.83 -64.7,17.31 -16.04,11.67 -24.07,26.98 -24.07,46.3 0,27.34 32.46,52.86 97.35,76.38 27.7,9.83 49.76,18.41 66.17,25.52 46.3,19.69 80.2,41.2 101.89,64.72 21.7,23.52 32.63,50.67 32.63,81.67 0,53.41 -22.95,96.24 -68.9,128.69 -45.93,32.26 -107.72,48.48 -185.39,48.48 -28.06,0 -54.14,-2.55 -78.38,-7.47 -24.24,-4.91 -47.58,-12.57 -70,-22.96zm-499.66 -86.41c0,22.8 2.93,41.76 8.75,57.07 6.03,15.31 15.3,28.8 28.07,40.09l-174.63 0c13.13,-11.3 22.61,-24.79 28.26,-40.09 5.66,-15.31 8.56,-34.27 8.56,-57.07l0 -323.56c0,-23.16 -2.91,-42.65 -8.75,-58.33 -6.02,-15.69 -15.31,-29.17 -28.07,-40.66l11.68 0c17.49,0 35.91,-0.91 55.41,-2.92 19.32,-2 40.65,-4.92 63.81,-8.75l4.74 82.76c26.79,-28.44 53.59,-49.4 80.76,-62.7 26.95,-13.31 55.76,-20.06 86.39,-20.06 57.59,0 104.63,17.5 140.73,52.7 36.09,34.98 54.12,80.92 54.12,137.44l0 244.07c0,22.8 2.94,41.76 8.58,57.07 5.66,15.31 15.13,28.8 28.25,40.09l-176.27 0c13.12,-11.3 22.59,-24.79 28.62,-40.09 5.81,-15.31 8.74,-34.27 8.74,-57.07l0 -185.93c0,-56.51 -10.2,-97.72 -30.62,-123.59 -20.59,-25.7 -53.05,-38.64 -97.52,-38.64 -46.12,0 -79.3,11.84 -99.53,35.54 -20.05,23.69 -30.08,63.26 -30.08,118.85l0 193.77zm-284.19 -34.26c0,37.36 3.29,65.07 9.85,83.12 6.56,18.04 17.86,34.08 33.91,48.3l-203.44 0c16.05,-14.22 27.34,-30.26 33.91,-48.3 6.57,-18.05 9.84,-45.76 9.84,-83.12l0 -479.97c0,-37.37 -3.28,-65.07 -9.84,-82.76 -6.57,-17.86 -17.86,-33.72 -33.91,-47.57l203.44 0c-16.05,13.85 -27.35,29.7 -33.91,47.57 -6.57,17.69 -9.85,45.39 -9.85,82.76l0 479.97zm-6324.19 -280.15c0,183.52 21.09,366.57 63.01,545.16 91.19,0 182.39,0 273.56,0 48.43,181.41 121.14,356.24 215.84,518.63 -64.71,64.7 -129.45,129.44 -194.15,194.15 96.66,155.98 211.14,300.27 341.02,430.15 129.74,129.81 274.07,244.25 430.02,340.89 64.71,-64.7 129.43,-129.44 194.15,-194.14 162.46,94.71 337.21,167.41 518.6,215.84 0,91.17 0.01,182.37 0.01,273.54 178.65,41.93 361.55,63.03 545.24,63.03 183.69,0 366.61,-21.1 545.24,-63.03 0,-91.17 0.01,-182.37 0.01,-273.54 181.41,-48.44 356.14,-121.13 518.61,-215.84 64.72,64.7 129.43,129.43 194.15,194.14 155.93,-96.64 300.27,-211.08 430.01,-340.89 129.89,-129.88 244.36,-274.17 341.03,-430.15 -64.72,-64.7 -129.45,-129.45 -194.16,-194.15 94.69,-162.39 167.41,-337.22 215.83,-518.63 91.18,0 182.38,0 273.56,0 41.92,-178.59 63.01,-361.64 63.01,-545.16 0,-183.53 -21.09,-366.59 -63.01,-545.17 -91.18,0 -182.38,0 -273.56,0 -48.43,-181.41 -121.15,-356.22 -215.83,-518.62 64.71,-64.7 129.44,-129.45 194.16,-194.15 -96.67,-155.97 -211.14,-300.26 -341.03,-430.15 -129.74,-129.81 -274.07,-244.25 -430.01,-340.89 -64.71,64.71 -129.43,129.44 -194.15,194.15 -162.47,-94.72 -337.2,-167.41 -518.61,-215.85 0,-91.16 -0.01,-182.37 -0.01,-273.54 -178.64,-41.94 -361.55,-63.03 -545.24,-63.03 -183.69,0 -366.59,21.09 -545.24,63.03 0,91.17 -0.01,182.37 -0.01,273.54 -181.39,48.44 -356.14,121.13 -518.6,215.85 -64.71,-64.7 -129.44,-129.44 -194.15,-194.15 -155.94,96.64 -300.28,211.08 -430.02,340.89 -129.88,129.89 -244.36,274.19 -341.02,430.15 64.7,64.7 129.44,129.45 194.15,194.15 -94.7,162.4 -167.41,337.22 -215.84,518.62 -91.17,0 -182.37,0 -273.56,0 -41.92,178.58 -63.01,361.64 -63.01,545.17zm2166.49 -1683.41c-831.48,108.82 -1477.1,823.07 -1477.1,1683.42 0,597.82 311.82,1125.01 781.03,1427.68 167.65,-64.81 317.11,-157.18 469.37,-255.07 -68.55,-24.77 -127.72,-43.49 -162.13,-53.12 -221.89,-62.13 -436.78,-225.17 -510.19,-462.88 -58.78,-190.3 8.37,-373.37 -6.28,-565.44 -14.4,-188.91 -51.83,-343.22 -139.67,-513.07 215.95,18.07 364.58,83.09 509.46,195.71 -9.49,-118.69 -53.65,-230.07 -103.57,-344.3 235.53,4.08 398.88,66.5 554.86,181.21l84.24 -1294.13zm-1.54 1187.42c67.93,-87.55 143.11,-167.54 222.34,-238.72 79.22,71.18 154.41,151.17 222.35,238.72l-98.6 -1600.84 -123.75 -155.7 -123.74 155.7 -98.59 1600.84zm527.38 106.71c156.01,-114.71 319.35,-177.13 554.86,-181.21 -49.92,114.23 -94.07,225.61 -103.57,344.3 144.87,-112.63 293.5,-177.65 509.45,-195.71 -87.85,169.86 -125.26,324.17 -139.67,513.07 -14.64,192.07 52.5,375.14 -6.27,565.44 -73.41,237.71 -288.31,400.75 -510.19,462.88 -34.4,9.63 -93.58,28.36 -162.14,53.12 152.24,97.89 301.7,190.26 469.36,255.07 469.2,-302.67 781.04,-829.85 781.04,-1427.68 0,-860.33 -645.64,-1574.54 -1477.11,-1683.37l84.23 1294.07zm37.36 73.35c120.81,215.52 208.07,481.92 205.52,746.71 -2.22,229.7 -120.95,567.06 -337.46,755.73 207.88,-114.13 542.57,-411.43 561.86,-675.53 17.61,-241.03 -75.86,-446.37 -96.04,-679.78 -8.99,-104.07 30.74,-230.4 64.04,-323.8 -151.34,19.64 -300.25,97.48 -397.91,176.67zm-684.8 0c-97.65,-79.19 -246.57,-157.02 -397.91,-176.67 33.29,93.4 73.04,219.73 64.04,323.8 -20.17,233.42 -113.65,438.76 -96.04,679.78 19.3,264.09 354,561.39 561.88,675.53 -216.53,-188.67 -335.25,-526.03 -337.48,-755.73 -2.57,-264.8 84.71,-531.2 205.51,-746.71zm-416.89 203.6c-89.81,-101.69 -246.96,-176.45 -374.39,-217.26 63.37,120.71 84.04,273.91 93.49,400.94 14.39,193.63 -52.67,412.31 10.46,585.14 95.68,262.01 331.74,351.51 581.05,427.6 -213.18,-138.99 -380.75,-327.57 -401.22,-579.64 -17.16,-211.23 68.97,-417.26 90.61,-616.78zm1518.59 0c21.64,199.52 107.76,405.56 90.61,616.78 -20.47,252.07 -188.04,440.65 -401.22,579.64 249.31,-76.09 485.37,-165.59 581.05,-427.6 63.11,-172.83 -3.93,-391.52 10.46,-585.14 9.44,-127.03 30.1,-280.23 93.48,-400.94 -127.4,40.81 -284.57,115.57 -374.39,217.26zm-759.3 1394.04c254.2,-191.18 460.13,-498.38 463.17,-830.57 3.92,-427.87 -204.56,-822.37 -463.17,-1076.64 -258.59,254.27 -467.08,648.77 -463.17,1076.64 3.04,332.19 208.96,639.39 463.17,830.57zm-321.26 -60.32c-151.36,130.78 -323.65,231.96 -507.36,300.53l78.37 131.11 1500.52 0 78.36 -131.11c-183.7,-68.57 -356,-169.74 -507.36,-300.53 -138.8,57.37 -279.2,129.44 -321.26,196.03 -42.06,-66.59 -182.48,-138.65 -321.26,-196.03zm535.12 -3011.67c892.96,106.33 1589.33,869.48 1589.33,1790.29 0,642.95 -339.6,1209.02 -848.5,1528.39l-144.19 241.24 -1621.01 0 -144.21 -241.26c-508.9,-319.33 -848.48,-885.42 -848.48,-1528.37 0,-920.81 696.37,-1683.99 1589.35,-1790.35l22.49 -345.5 191.35 -227.84 191.36 227.84 22.5 345.57zm-213.86 -702.26c219.42,0 438.59,30.21 650.52,86.69l0 279.72c136.78,42.06 268,96.98 392.26,163.38l198.42 -198.43c189.8,109.87 366.22,243.53 521.31,398.68 155.18,155.13 288.78,331.49 398.69,521.27l-198.46 198.45c66.38,124.26 121.31,255.47 163.35,392.24l279.77 0c56.52,211.9 86.71,431.17 86.71,650.54 0,219.36 -30.19,438.63 -86.71,650.53l-279.77 0c-42.04,136.76 -96.96,267.99 -163.35,392.24l198.46 198.45c-109.91,189.78 -243.51,366.14 -398.69,521.27 -155.1,155.15 -331.52,288.81 -521.31,398.68l-198.42 -198.41c-124.26,66.38 -255.47,121.31 -392.26,163.37l0 279.73c-211.93,56.48 -431.1,86.67 -650.52,86.67 -219.41,0 -438.6,-30.19 -650.5,-86.67l0 -279.73c-136.78,-42.06 -268,-96.98 -392.26,-163.37l-198.43 198.41c-189.8,-109.87 -366.22,-243.53 -521.31,-398.68 -155.18,-155.13 -288.78,-331.48 -398.69,-521.27l198.45 -198.45c-66.38,-124.24 -121.29,-255.48 -163.35,-392.24l-279.76 0c-56.52,-211.9 -86.72,-431.17 -86.72,-650.53 0,-219.37 30.2,-438.65 86.72,-650.54l279.76 0c42.06,-136.76 96.97,-267.98 163.35,-392.24l-198.45 -198.45c109.91,-189.78 243.51,-366.14 398.69,-521.27 155.1,-155.15 331.51,-288.81 521.31,-398.68l198.43 198.43c124.26,-66.39 255.47,-121.32 392.26,-163.38l0 -279.72c211.91,-56.48 431.09,-86.69 650.5,-86.69z"/>
  <path class="fil2" d="M5558.44 3997.74l-431.96 0 431.96 -377.51 0 377.51zm-4487.59 416.37c-831.48,108.82 -1477.1,823.07 -1477.1,1683.42 0,597.82 311.83,1125.01 781.03,1427.68 167.66,-64.82 317.11,-157.18 469.37,-255.07 -68.55,-24.77 -127.73,-43.49 -162.13,-53.12 -221.89,-62.13 -436.79,-225.17 -510.2,-462.88 -58.78,-190.3 8.37,-373.37 -6.28,-565.44 -14.4,-188.91 -51.83,-343.22 -139.67,-513.07 215.95,18.06 364.58,83.09 509.45,195.71 -9.49,-118.69 -53.65,-230.06 -103.57,-344.3 235.53,4.09 398.87,66.5 554.86,181.21l84.24 -1294.13zm-1.54 1187.42c67.93,-87.55 143.12,-167.54 222.34,-238.72 79.22,71.18 154.41,151.17 222.35,238.72l-98.61 -1600.85 -123.74 -155.7 -123.74 155.7 -98.6 1600.85zm527.38 106.71c156,-114.71 319.34,-177.13 554.86,-181.21 -49.92,114.24 -94.08,225.61 -103.57,344.3 144.88,-112.62 293.5,-177.65 509.46,-195.71 -87.85,169.86 -125.26,324.17 -139.67,513.07 -14.64,192.07 52.5,375.14 -6.27,565.44 -73.41,237.71 -288.31,400.75 -510.2,462.88 -34.4,9.63 -93.57,28.36 -162.13,53.12 152.24,97.89 301.7,190.26 469.36,255.07 469.2,-302.67 781.04,-829.85 781.04,-1427.68 0,-860.34 -645.65,-1574.54 -1477.11,-1683.37l84.24 1294.07zm-91.18 -1401c892.96,106.33 1589.33,869.47 1589.33,1790.29 0,642.95 -339.59,1209.02 -848.49,1528.39l-144.19 241.24 -1621.02 0 -144.21 -241.26c-508.9,-319.33 -848.47,-885.42 -848.47,-1528.37 0,-920.81 696.37,-1683.99 1589.34,-1790.35l22.49 -345.5 191.35 -227.84 191.36 227.84 22.5 345.57zm128.54 1474.36c120.81,215.52 208.07,481.91 205.52,746.71 -2.22,229.7 -120.95,567.06 -337.46,755.73 207.88,-114.13 542.56,-411.43 561.86,-675.52 17.61,-241.03 -75.87,-446.37 -96.04,-679.78 -8.99,-104.07 30.74,-230.4 64.04,-323.8 -151.34,19.64 -300.25,97.48 -397.91,176.67zm-684.8 0c-97.65,-79.19 -246.57,-157.02 -397.91,-176.67 33.29,93.4 73.04,219.73 64.04,323.8 -20.17,233.42 -113.65,438.76 -96.04,679.78 19.3,264.09 353.99,561.39 561.88,675.52 -216.53,-188.67 -335.25,-526.03 -337.48,-755.73 -2.57,-264.8 84.71,-531.2 205.51,-746.71zm-416.89 203.6c-89.81,-101.69 -246.96,-176.45 -374.39,-217.26 63.37,120.71 84.04,273.91 93.48,400.94 14.39,193.63 -52.67,412.31 10.46,585.14 95.68,262.01 331.73,351.51 581.05,427.6 -213.17,-138.99 -380.74,-327.57 -401.22,-579.64 -17.16,-211.23 68.96,-417.27 90.61,-616.78zm1518.59 0c21.64,199.52 107.76,405.55 90.61,616.78 -20.47,252.07 -188.04,440.65 -401.22,579.64 249.3,-76.09 485.37,-165.59 581.05,-427.6 63.11,-172.83 -3.93,-391.52 10.46,-585.14 9.43,-127.04 30.1,-280.23 93.48,-400.94 -127.41,40.81 -284.57,115.57 -374.39,217.26zm-759.3 1394.03c254.2,-191.17 460.13,-498.38 463.17,-830.57 3.92,-427.87 -204.56,-822.37 -463.17,-1076.64 -258.59,254.27 -467.08,648.78 -463.17,1076.64 3.04,332.19 208.96,639.39 463.17,830.57zm-321.26 -60.31c-151.35,130.78 -323.65,231.96 -507.36,300.53l78.36 131.11 1500.52 0 78.36 -131.11c-183.7,-68.57 -356,-169.74 -507.36,-300.53 -138.79,57.37 -279.19,129.44 -321.26,196.02 -42.06,-66.58 -182.48,-138.64 -321.26,-196.02zm-2066.03 -1221.39c0,183.52 21.09,366.57 63.01,545.16 91.19,0 182.39,0 273.56,0 48.43,181.41 121.15,356.24 215.84,518.63 -64.72,64.7 -129.45,129.44 -194.15,194.15 96.66,155.98 211.13,300.27 341.02,430.15 129.74,129.81 274.07,244.25 430.02,340.89 64.7,-64.71 129.43,-129.44 194.15,-194.14 162.46,94.71 337.21,167.41 518.6,215.84 0,91.17 0.01,182.37 0.01,273.54 178.65,41.93 361.55,63.03 545.24,63.03 183.69,0 366.61,-21.1 545.24,-63.03 0,-91.17 0.01,-182.37 0.01,-273.54 181.4,-48.44 356.14,-121.13 518.61,-215.84 64.72,64.7 129.43,129.43 194.15,194.14 155.93,-96.64 300.27,-211.08 430.01,-340.89 129.89,-129.88 244.36,-274.18 341.03,-430.15 -64.72,-64.7 -129.45,-129.45 -194.16,-194.15 94.69,-162.39 167.41,-337.22 215.83,-518.63 91.18,0 182.38,0 273.56,0 41.92,-178.59 63.01,-361.64 63.01,-545.16 0,-183.53 -21.09,-366.59 -63.01,-545.17 -91.18,0 -182.38,0 -273.56,0 -48.43,-181.41 -121.14,-356.23 -215.83,-518.62 64.7,-64.7 129.44,-129.45 194.16,-194.15 -96.67,-155.97 -211.14,-300.26 -341.03,-430.15 -129.74,-129.81 -274.07,-244.25 -430.01,-340.89 -64.72,64.7 -129.43,129.44 -194.15,194.15 -162.47,-94.72 -337.21,-167.41 -518.61,-215.85 0,-91.16 -0.01,-182.37 -0.01,-273.54 -178.63,-41.94 -361.55,-63.03 -545.24,-63.03 -183.69,0 -366.6,21.09 -545.24,63.03 0,91.17 -0.01,182.38 -0.01,273.54 -181.39,48.44 -356.14,121.13 -518.6,215.85 -64.72,-64.7 -129.44,-129.44 -194.15,-194.15 -155.94,96.64 -300.28,211.08 -430.02,340.89 -129.89,129.89 -244.36,274.19 -341.02,430.15 64.7,64.7 129.44,129.45 194.15,194.15 -94.7,162.39 -167.41,337.22 -215.84,518.62 -91.17,0 -182.37,0 -273.56,0 -41.92,178.58 -63.01,361.64 -63.01,545.17zm2387.29 -2492.55c219.41,0 438.59,30.2 650.52,86.69l0 279.72c136.78,42.06 268,96.98 392.25,163.37l198.43 -198.42c189.8,109.86 366.22,243.53 521.31,398.68 155.18,155.13 288.78,331.49 398.69,521.27l-198.46 198.45c66.38,124.25 121.31,255.47 163.35,392.24l279.77 0c56.52,211.9 86.72,431.17 86.72,650.54 0,219.36 -30.2,438.63 -86.72,650.53l-279.77 0c-42.04,136.76 -96.97,267.99 -163.35,392.24l198.46 198.45c-109.91,189.78 -243.51,366.14 -398.69,521.27 -155.1,155.15 -331.52,288.81 -521.31,398.68l-198.43 -198.41c-124.25,66.38 -255.47,121.31 -392.25,163.37l0 279.73c-211.93,56.47 -431.1,86.67 -650.52,86.67 -219.42,0 -438.6,-30.2 -650.5,-86.67l0 -279.73c-136.78,-42.06 -268,-96.98 -392.26,-163.37l-198.43 198.41c-189.8,-109.87 -366.22,-243.53 -521.31,-398.68 -155.18,-155.13 -288.78,-331.48 -398.69,-521.27l198.45 -198.45c-66.38,-124.24 -121.29,-255.48 -163.35,-392.24l-279.76 0c-56.52,-211.9 -86.72,-431.17 -86.72,-650.53 0,-219.37 30.2,-438.65 86.72,-650.54l279.76 0c42.06,-136.76 96.96,-267.98 163.35,-392.24l-198.45 -198.45c109.91,-189.78 243.51,-366.14 398.69,-521.27 155.1,-155.15 331.51,-288.82 521.31,-398.68l198.43 198.42c124.25,-66.39 255.47,-121.32 392.26,-163.37l0 -279.72c211.91,-56.48 431.09,-86.69 650.5,-86.69z"/>
 </g>
</svg>
