<?xml version="1.0" encoding="UTF-8"?>
<!DOCTYPE svg PUBLIC "-//W3C//DTD SVG 1.1//EN" "http://www.w3.org/Graphics/SVG/1.1/DTD/svg11.dtd">
<!-- Creator: CorelDRAW 2020 (64-Bit) -->
<svg xmlns="http://www.w3.org/2000/svg" xml:space="preserve" width="4.24286cm" height="3cm" version="1.1" style="shape-rendering:geometricPrecision; text-rendering:geometricPrecision; image-rendering:optimizeQuality; fill-rule:evenodd; clip-rule:evenodd"
viewBox="0 0 4242.86 3000"
 xmlns:xlink="http://www.w3.org/1999/xlink"
 xmlns:xodm="http://www.corel.com/coreldraw/odm/2003">
 <defs>
  <style type="text/css">
   <![CDATA[
    .fil0 {fill:#00679A}
    .fil1 {fill:#EDEFF4}
   ]]>
  </style>
 </defs>
 <g id="Layer_x0020_1">
  <metadata id="CorelCorpID_0Corel-Layer"/>
  <path class="fil0" d="M862.93 813.21l952.93 0 0 1245.86c-140.49,81.21 -303.23,127.73 -476.47,127.73 -173.23,0 -335.97,-46.51 -476.47,-127.72l0 -1245.86zm-241.5 -813.21l98.11 -0 0 15.33 -82.77 0 0 82.77 -15.33 0 -0 -98.1zm3000.01 3000l-98.11 0 0 -15.33 82.77 0 0 -82.77 15.33 0 0 98.11zm-3000.01 0l-0 -98.11 15.33 0 0 82.77 82.78 0 0 15.33 -98.11 0zm3000 -3000.01l0 98.11 -15.33 0 0 -82.77 -82.77 0 0 -15.33 98.1 -0zm-1623.76 1609.83c0,10.79 1.45,19.97 15.17,27.72l-96.99 0c13.86,-7.65 15.17,-16.98 15.17,-27.72l0 -246.08c0,-10.81 -1.05,-19.89 -15.17,-27.49l81.82 0 0 58.24 0 215.32zm0 -273.57l520.42 0 -66.81 58.24 -92.47 0c-16.04,3.93 -22.2,12.92 -22.07,22.96 0.28,21.93 27.68,24.06 56.12,30.93 20.76,5.01 41.55,11.3 51.09,14.62 40.01,13.93 68.08,36.37 68.69,83.53 0.85,64.92 -65.88,93.2 -127.39,94.98 -34.34,0.99 -67.87,-5.9 -100.84,-13.81l-15.42 -59.82c20.27,7.76 69.56,19.16 111.7,19.37 44.85,0.22 67.41,-9.76 66.6,-36.44 -0.66,-21.93 -19.87,-32.53 -48.31,-39.4 -20.75,-5.01 -45.46,-9.34 -55,-12.66 -40.01,-13.92 -72.64,-26.6 -73.25,-73.76 -0.14,-11.25 1.74,-21.4 5.27,-30.5l-96.62 0 0 215.32c0,10.79 1.45,19.97 15.16,27.72l-96.99 0c13.86,-7.65 15.17,-16.98 15.17,-27.72l0 -215.32 -115.05 0 -66.64 0 66.64 -58.24zm1382.25 664.58c-1.26,-0.93 -2.56,-1.6 -3.88,-2.03 -1.32,-0.42 -2.76,-0.62 -4.36,-0.62 -5.82,0 -10.26,1.97 -13.3,5.91 -3.07,3.91 -4.58,9.59 -4.58,17.01l0 29.9c0,3.52 0.45,6.44 1.35,8.8 0.93,2.36 2.36,4.44 4.33,6.19l-26.94 0c2.03,-1.74 3.49,-3.83 4.36,-6.19 0.87,-2.36 1.32,-5.29 1.32,-8.8l0 -49.92c0,-3.57 -0.45,-6.58 -1.35,-9 -0.93,-2.42 -2.36,-4.5 -4.33,-6.27l1.8 0c2.7,0 5.54,-0.14 8.55,-0.45 2.98,-0.31 6.27,-0.76 9.84,-1.35l1.24 12.77c2.42,-4.28 5.18,-7.45 8.33,-9.51 3.12,-2.05 6.69,-3.09 10.71,-3.09 0.98,0 2,0.06 3.04,0.17 1.04,0.11 2.33,0.31 3.88,0.65l0 15.83zm-120.65 11.87l42.83 0c-0.34,-5.65 -2.42,-10.29 -6.27,-13.89 -3.83,-3.6 -8.61,-5.4 -14.31,-5.4 -6.16,0 -11.22,1.72 -15.16,5.15 -3.97,3.43 -6.33,8.16 -7.09,14.15zm-1.15 11.28c0.39,9.98 3.54,17.94 9.51,23.85 5.96,5.91 13.75,8.86 23.37,8.86 4.27,0 8.8,-0.7 13.56,-2.11 4.75,-1.41 9.9,-3.54 15.44,-6.47l-8.92 15.49c-4.75,1.77 -9.22,3.09 -13.33,3.97 -4.14,0.87 -7.99,1.32 -11.62,1.32 -13.36,0 -24.33,-4.05 -32.96,-12.12 -8.63,-8.07 -12.94,-18.31 -12.94,-30.74 0,-12.74 3.97,-23.2 11.9,-31.36 7.96,-8.16 18.08,-12.23 30.46,-12.23 11.36,0 20.39,3.71 27.11,11.17 6.69,7.45 10.12,17.58 10.29,30.37l-61.87 0zm-89.63 29.33c2.14,1.21 4.33,2.11 6.58,2.67 2.25,0.59 4.67,0.87 7.26,0.87 9.28,0 16.62,-2.78 22.05,-8.32 5.4,-5.54 8.1,-13.05 8.1,-22.5 0,-8.55 -2.22,-15.5 -6.67,-20.78 -4.44,-5.31 -10.26,-7.96 -17.47,-7.96 -2.02,0 -4.25,0.28 -6.66,0.87 -2.42,0.56 -5.15,1.41 -8.16,2.5l8.63 -15.33c1.83,-0.25 3.46,-0.48 4.92,-0.62 1.43,-0.14 2.84,-0.2 4.13,-0.2 11.5,0 20.7,3.63 27.62,10.91 6.92,7.28 10.38,16.96 10.38,29.05 0,13.67 -4.47,24.52 -13.44,32.59 -8.94,8.07 -21.06,12.12 -36.34,12.12 -4.05,0 -8.78,-0.34 -14.17,-1.04 -5.37,-0.68 -11.45,-1.69 -18.2,-2.98 1.97,-1.77 3.4,-3.85 4.33,-6.27 0.9,-2.42 1.35,-5.4 1.35,-8.97l0 -86.37c0,-3.57 -0.45,-6.55 -1.35,-8.94 -0.93,-2.39 -2.36,-4.44 -4.33,-6.21l21.43 0 0 104.9zm-150.04 -2.31c0,3.52 0.45,6.44 1.35,8.8 0.93,2.36 2.36,4.44 4.33,6.19l-26.94 0c2.03,-1.74 3.49,-3.83 4.36,-6.19 0.87,-2.36 1.32,-5.29 1.32,-8.8l0 -49.92c0,-3.57 -0.45,-6.58 -1.35,-9 -0.93,-2.42 -2.36,-4.5 -4.33,-6.27l1.8 0c2.7,0 5.54,-0.14 8.55,-0.45 2.98,-0.31 6.27,-0.76 9.84,-1.35l0.73 12.77c4.08,-4.33 8.21,-7.54 12.46,-9.65 4.22,-2.08 8.66,-3.12 13.33,-3.12 5.6,0 10.66,1.15 15.16,3.46 4.5,2.31 8.55,5.82 12.18,10.55 5.01,-4.84 9.76,-8.38 14.29,-10.63 4.53,-2.25 9.17,-3.37 13.89,-3.37 8.83,0 16,2.7 21.54,8.07 5.52,5.4 8.27,12.49 8.27,21.26l0 37.66c0,3.52 0.45,6.44 1.35,8.8 0.93,2.36 2.39,4.44 4.42,6.19l-27.03 0c2.02,-1.74 3.49,-3.83 4.42,-6.19 0.9,-2.36 1.35,-5.29 1.35,-8.8l0 -28.69c0,-8.72 -1.57,-15.07 -4.73,-19.07 -3.18,-3.97 -8.18,-5.96 -15.04,-5.96 -7.12,0 -12.23,1.83 -15.36,5.48 -3.09,3.65 -4.64,9.76 -4.64,18.34l0 29.9c0,3.52 0.45,6.44 1.32,8.8 0.87,2.36 2.33,4.44 4.36,6.19l-27.19 0c2.02,-1.74 3.49,-3.83 4.41,-6.19 0.9,-2.36 1.35,-5.29 1.35,-8.8l0 -28.69c0,-8.72 -1.57,-15.07 -4.72,-19.07 -3.18,-3.97 -8.18,-5.96 -15.05,-5.96 -7.11,0 -12.23,1.83 -15.36,5.48 -3.09,3.65 -4.64,9.76 -4.64,18.34l0 29.9zm-94.52 -38.3l42.83 0c-0.34,-5.65 -2.42,-10.29 -6.27,-13.89 -3.82,-3.6 -8.61,-5.4 -14.31,-5.4 -6.16,0 -11.22,1.72 -15.16,5.15 -3.97,3.43 -6.33,8.16 -7.09,14.15zm-1.15 11.28c0.39,9.98 3.54,17.94 9.51,23.85 5.96,5.91 13.75,8.86 23.37,8.86 4.28,0 8.8,-0.7 13.56,-2.11 4.75,-1.41 9.9,-3.54 15.44,-6.47l-8.92 15.49c-4.75,1.77 -9.22,3.09 -13.33,3.97 -4.13,0.87 -7.99,1.32 -11.62,1.32 -13.36,0 -24.33,-4.05 -32.96,-12.12 -8.63,-8.07 -12.94,-18.31 -12.94,-30.74 0,-12.74 3.97,-23.2 11.9,-31.36 7.96,-8.16 18.08,-12.23 30.46,-12.23 11.36,0 20.39,3.71 27.11,11.17 6.69,7.45 10.12,17.58 10.29,30.37l-61.87 0zm-118.79 77.11c2.03,-1.77 3.49,-3.82 4.36,-6.19 0.87,-2.36 1.32,-5.29 1.32,-8.8l0 -85.05c0,-3.57 -0.45,-6.55 -1.35,-8.97 -0.93,-2.42 -2.36,-4.5 -4.33,-6.27l2.14 0c2.98,0 5.96,-0.14 9,-0.45 3.01,-0.31 6.1,-0.76 9.22,-1.35l0.73 12.77c4.13,-4.5 8.63,-7.87 13.55,-10.12 4.92,-2.25 10.18,-3.37 15.78,-3.37 11.08,0 20.45,3.91 28.04,11.73 7.62,7.85 11.42,17.49 11.42,28.97 0,7.54 -1.46,14.4 -4.42,20.64 -2.92,6.22 -7.14,11.39 -12.63,15.44 -3.63,2.76 -7.48,4.78 -11.53,6.13 -4.08,1.35 -8.44,2.03 -13.11,2.03 -1.97,0 -4.05,-0.14 -6.19,-0.42 -2.14,-0.25 -4.28,-0.65 -6.41,-1.15l-9.98 -14.48c3.4,1.55 6.58,2.67 9.48,3.4 2.93,0.76 5.65,1.12 8.24,1.12 9.06,0 16.11,-2.64 21.21,-7.9 5.09,-5.29 7.62,-12.66 7.62,-22.08 0,-9.08 -2.53,-16.51 -7.57,-22.33 -5.06,-5.82 -11.45,-8.75 -19.21,-8.75 -3.29,0 -6.41,0.59 -9.39,1.74 -2.95,1.15 -5.63,2.81 -7.99,5.01 -2.42,2.2 -4.11,4.98 -5.09,8.3 -0.98,3.32 -1.49,8.94 -1.49,16.85l0 5.03 0 53.55c0,3.52 0.45,6.44 1.35,8.8 0.93,2.36 2.36,4.42 4.33,6.19l-27.11 0zm-83.39 -77.59c0,9.98 2.56,18.08 7.71,24.24 5.15,6.19 11.81,9.28 20.05,9.28 7.76,0 14.09,-2.76 19.01,-8.27 4.92,-5.54 7.37,-12.65 7.37,-21.4 0,-9.39 -2.62,-17.13 -7.87,-23.23 -5.23,-6.1 -11.9,-9.14 -19.97,-9.14 -7.59,0 -13.86,2.7 -18.84,8.13 -4.98,5.4 -7.45,12.2 -7.45,20.39zm-17.72 3.37c0,-6.05 1.15,-11.73 3.43,-17.01 2.28,-5.32 5.6,-10.04 10.01,-14.23 4.22,-3.94 9.17,-7.03 14.82,-9.22 5.65,-2.19 11.53,-3.29 17.63,-3.29 6.33,0 12.04,1.01 17.13,3.04 5.12,2.05 9.73,5.15 13.86,9.31 4.05,4.08 7.17,8.66 9.31,13.72 2.14,5.09 3.21,10.41 3.21,15.95 0,6.1 -1.13,11.81 -3.38,17.1 -2.25,5.32 -5.57,10.01 -9.98,14.15 -4.16,3.88 -9.08,6.92 -14.74,9.08 -5.65,2.17 -11.53,3.26 -17.63,3.26 -6.44,0 -12.18,-0.98 -17.21,-2.95 -5.06,-2 -9.67,-5.06 -13.86,-9.25 -4.05,-4.05 -7.17,-8.66 -9.34,-13.78 -2.17,-5.15 -3.26,-10.43 -3.26,-15.86zm-14.74 -75.31c-2.48,2.14 -4.22,4.58 -5.23,7.34 -1.01,2.73 -1.52,7 -1.52,12.77l0 96.97c-4.02,-0.11 -7.82,-1.41 -11.42,-3.88 -3.57,-2.48 -8.1,-7.17 -13.53,-14.09l-59.12 -74.47 0 69.52c0,5.99 0.51,10.35 1.49,13.02 0.98,2.7 2.67,5.12 5.09,7.26l-25.93 0c2.42,-2.19 4.13,-4.67 5.17,-7.45 1.04,-2.79 1.58,-7.06 1.58,-12.82l0 -74.05c0,-5.77 -0.53,-10.04 -1.58,-12.77 -1.04,-2.76 -2.76,-5.2 -5.17,-7.34l23.23 0 67.75 85.92 0 -65.81c0,-5.77 -0.53,-10.04 -1.57,-12.77 -1.04,-2.76 -2.76,-5.2 -5.17,-7.34l25.93 0zm-236.35 99.44c0,3.52 0.45,6.44 1.35,8.8 0.93,2.36 2.36,4.44 4.33,6.19l-26.94 0c2.03,-1.74 3.49,-3.83 4.36,-6.19 0.87,-2.36 1.32,-5.29 1.32,-8.8l0 -85.61c0,-3.54 -0.45,-6.47 -1.32,-8.83 -0.87,-2.36 -2.33,-4.42 -4.36,-6.19l1.49 0c2.36,0 5.15,-0.17 8.35,-0.51 3.21,-0.31 6.92,-0.81 11.08,-1.46l0 48.37c4.13,-4.39 8.27,-7.62 12.46,-9.67 4.16,-2.05 8.61,-3.09 13.33,-3.09 8.89,0 16.14,2.7 21.71,8.13 5.57,5.4 8.35,12.49 8.35,21.21l0 37.66c0,3.52 0.45,6.44 1.32,8.8 0.87,2.36 2.33,4.44 4.36,6.19l-27.19 0c2.02,-1.74 3.49,-3.83 4.42,-6.19 0.9,-2.36 1.35,-5.29 1.35,-8.8l0 -28.69c0,-8.77 -1.57,-15.19 -4.72,-19.18 -3.18,-4.02 -8.18,-6.02 -15.05,-6.02 -7.11,0 -12.23,1.83 -15.35,5.51 -3.1,3.68 -4.64,9.84 -4.64,18.45l0 29.92zm-54.22 4.19c-4.13,4.39 -8.27,7.62 -12.46,9.73 -4.16,2.08 -8.6,3.12 -13.33,3.12 -8.83,0 -16.06,-2.73 -21.65,-8.21 -5.6,-5.46 -8.41,-12.57 -8.41,-21.37l0 -37.4c0,-3.57 -0.45,-6.55 -1.35,-8.97 -0.93,-2.42 -2.36,-4.53 -4.33,-6.27l2.3 0c3.18,0 6.38,-0.14 9.56,-0.45 3.18,-0.31 6.36,-0.76 9.48,-1.35l0.08 45.7c0,8.69 1.58,15.02 4.7,19.01 3.12,3.97 8.13,5.96 14.99,5.96 7.17,0 12.32,-1.83 15.44,-5.51 3.09,-3.69 4.64,-9.84 4.64,-18.45l0 -29.67c0,-3.57 -0.45,-6.55 -1.35,-8.97 -0.93,-2.42 -2.39,-4.53 -4.42,-6.27l2.05 0c2.92,0 5.96,-0.14 9.11,-0.45 3.15,-0.31 6.55,-0.76 10.18,-1.35l0 64.91c0,3.51 0.45,6.47 1.32,8.83 0.87,2.36 2.33,4.41 4.36,6.19l-1.49 0c-2.42,0 -5.06,0.17 -7.98,0.48 -2.9,0.34 -6.44,0.87 -10.63,1.57l-0.82 -10.8zm-78.91 -4.19c0,3.52 0.45,6.44 1.35,8.8 0.93,2.36 2.36,4.42 4.33,6.19l-26.77 0c2.03,-1.77 3.49,-3.83 4.36,-6.19 0.87,-2.36 1.32,-5.29 1.32,-8.8l0 -85.64c0,-3.51 -0.45,-6.44 -1.32,-8.8 -0.87,-2.36 -2.33,-4.42 -4.36,-6.19l1.8 0c1.77,0 3.94,-0.11 6.47,-0.37 2.56,-0.25 6.84,-0.79 12.82,-1.6l0 102.59zm-54.22 4.19c-4.13,4.39 -8.27,7.62 -12.46,9.73 -4.16,2.08 -8.6,3.12 -13.33,3.12 -8.83,0 -16.06,-2.73 -21.66,-8.21 -5.6,-5.46 -8.41,-12.57 -8.41,-21.37l0 -37.4c0,-3.57 -0.45,-6.55 -1.35,-8.97 -0.93,-2.42 -2.36,-4.53 -4.33,-6.27l2.31 0c3.18,0 6.38,-0.14 9.56,-0.45 3.18,-0.31 6.36,-0.76 9.48,-1.35l0.08 45.7c0,8.69 1.57,15.02 4.7,19.01 3.12,3.97 8.13,5.96 14.99,5.96 7.17,0 12.32,-1.83 15.44,-5.51 3.09,-3.69 4.64,-9.84 4.64,-18.45l0 -29.67c0,-3.57 -0.45,-6.55 -1.35,-8.97 -0.93,-2.42 -2.39,-4.53 -4.42,-6.27l2.05 0c2.92,0 5.96,-0.14 9.11,-0.45 3.15,-0.31 6.55,-0.76 10.18,-1.35l0 64.91c0,3.51 0.45,6.47 1.32,8.83 0.87,2.36 2.33,4.41 4.36,6.19l-1.49 0c-2.42,0 -5.06,0.17 -7.99,0.48 -2.9,0.34 -6.44,0.87 -10.63,1.57l-0.81 -10.8zm-162.78 45.9c2.03,-1.77 3.49,-3.82 4.36,-6.19 0.87,-2.36 1.32,-5.29 1.32,-8.8l0 -85.05c0,-3.57 -0.45,-6.55 -1.35,-8.97 -0.93,-2.42 -2.36,-4.5 -4.33,-6.27l2.14 0c2.98,0 5.96,-0.14 9,-0.45 3.01,-0.31 6.1,-0.76 9.22,-1.35l0.73 12.77c4.13,-4.5 8.63,-7.87 13.55,-10.12 4.92,-2.25 10.18,-3.37 15.78,-3.37 11.08,0 20.44,3.91 28.04,11.73 7.62,7.85 11.42,17.49 11.42,28.97 0,7.54 -1.46,14.4 -4.42,20.64 -2.93,6.22 -7.14,11.39 -12.63,15.44 -3.63,2.76 -7.48,4.78 -11.53,6.13 -4.08,1.35 -8.44,2.03 -13.11,2.03 -1.97,0 -4.05,-0.14 -6.19,-0.42 -2.14,-0.25 -4.28,-0.65 -6.41,-1.15l-9.98 -14.48c3.4,1.55 6.58,2.67 9.48,3.4 2.92,0.76 5.65,1.12 8.24,1.12 9.06,0 16.11,-2.64 21.2,-7.9 5.09,-5.29 7.62,-12.66 7.62,-22.08 0,-9.08 -2.53,-16.51 -7.56,-22.33 -5.06,-5.82 -11.45,-8.75 -19.21,-8.75 -3.29,0 -6.41,0.59 -9.39,1.74 -2.95,1.15 -5.63,2.81 -7.99,5.01 -2.42,2.2 -4.11,4.98 -5.09,8.3 -0.98,3.32 -1.49,8.94 -1.49,16.85l0 5.03 0 53.55c0,3.52 0.45,6.44 1.35,8.8 0.93,2.36 2.36,4.42 4.33,6.19l-27.11 0zm-73.26 -88.39l42.83 0c-0.34,-5.65 -2.42,-10.29 -6.27,-13.89 -3.83,-3.6 -8.61,-5.4 -14.31,-5.4 -6.16,0 -11.22,1.72 -15.16,5.15 -3.97,3.43 -6.33,8.16 -7.09,14.15zm-1.15 11.28c0.39,9.98 3.54,17.94 9.51,23.85 5.96,5.91 13.75,8.86 23.37,8.86 4.27,0 8.8,-0.7 13.56,-2.11 4.75,-1.41 9.9,-3.54 15.44,-6.47l-8.92 15.49c-4.75,1.77 -9.23,3.09 -13.33,3.97 -4.13,0.87 -7.99,1.32 -11.62,1.32 -13.36,0 -24.33,-4.05 -32.96,-12.12 -8.63,-8.07 -12.94,-18.31 -12.94,-30.74 0,-12.74 3.97,-23.2 11.9,-31.36 7.96,-8.16 18.08,-12.23 30.46,-12.23 11.36,0 20.39,3.71 27.11,11.17 6.69,7.45 10.12,17.58 10.29,30.37l-61.87 0zm-106.76 39.46l-5.46 -20.76c6.66,4.44 13.11,7.73 19.38,9.9 6.27,2.17 12.46,3.26 18.62,3.26 7.87,0 14.17,-1.69 18.95,-5.06 4.78,-3.38 7.17,-7.76 7.17,-13.13 0,-1.55 -0.25,-3.07 -0.73,-4.61 -0.51,-1.52 -1.21,-2.98 -2.17,-4.36 -2.08,-3.12 -9.08,-7.59 -21.01,-13.44 -3.01,-1.41 -5.34,-2.53 -7,-3.37 -11.14,-5.6 -18.79,-10.74 -22.95,-15.47 -4.14,-4.72 -6.22,-10.35 -6.22,-16.82 0,-9.28 3.8,-16.65 11.36,-22.13 7.59,-5.46 17.97,-8.18 31.16,-8.18 3.8,0 7.96,0.25 12.54,0.73 4.56,0.51 9.51,1.27 14.82,2.31l0 19.21c-4.72,-3.57 -9.48,-6.24 -14.26,-7.99 -4.78,-1.77 -9.76,-2.64 -14.91,-2.64 -6.55,0 -11.81,1.41 -15.8,4.19 -3.97,2.81 -5.96,6.47 -5.96,10.97 0,4.02 1.57,7.56 4.7,10.63 3.12,3.07 10.15,7.2 21.09,12.35 0.62,0.28 1.55,0.73 2.81,1.32 9.22,4.25 16.11,8.13 20.67,11.7 3.4,2.64 6.07,5.85 7.96,9.65 1.89,3.8 2.84,7.82 2.84,12.09 0,9.84 -4.5,18.17 -13.53,25 -9,6.83 -20.25,10.26 -33.78,10.26 -4.33,0 -9,-0.48 -14.01,-1.41 -5.01,-0.93 -10.43,-2.33 -16.31,-4.19zm670.81 -241.08c0,-2.78 0.98,-5.17 2.95,-7.14 2,-1.99 4.39,-2.98 7.17,-2.98 2.76,0 5.09,0.99 7,2.98 1.94,1.97 2.9,4.36 2.9,7.14 0,2.87 -0.96,5.29 -2.84,7.23 -1.88,1.94 -4.25,2.93 -7.06,2.93 -2.84,0 -5.26,-0.99 -7.2,-2.98 -1.94,-1.97 -2.92,-4.36 -2.92,-7.17zm18.53 86.62c0,3.52 0.45,6.44 1.35,8.8 0.93,2.36 2.39,4.41 4.42,6.19l-26.86 0c2.03,-1.77 3.49,-3.83 4.42,-6.19 0.9,-2.36 1.35,-5.29 1.35,-8.8l0 -49.95c0,-3.57 -0.48,-6.55 -1.41,-8.97 -0.93,-2.42 -2.39,-4.5 -4.36,-6.27 4.73,-0.11 8.8,-0.31 12.21,-0.62 3.4,-0.28 6.36,-0.7 8.89,-1.18l0 66.99zm-55.85 -37.15c0,-5.71 -2.05,-10.49 -6.13,-14.34 -4.11,-3.85 -9.2,-5.76 -15.3,-5.76 -5.71,0 -10.27,1.57 -13.67,4.72 -3.4,3.18 -5.12,7.34 -5.12,12.49 0,5.85 2.08,10.72 6.27,14.68 4.16,3.96 9.28,5.93 15.33,5.93 5.37,0 9.82,-1.69 13.33,-5.03 3.51,-3.35 5.29,-7.56 5.29,-12.68zm30.32 -31.72l-5.12 12.85c-0.45,0.06 -0.96,0.11 -1.57,0.14 -0.59,0.03 -1.55,0.03 -2.87,0.03 -2.36,0 -5.12,-0.11 -8.24,-0.37 -3.12,-0.25 -6.67,-0.62 -10.63,-1.12 5.17,2.81 8.97,5.93 11.45,9.36 2.47,3.43 3.71,7.37 3.71,11.81 0,5.18 -1.58,9.76 -4.73,13.81 -3.18,4.02 -7.68,7.2 -13.55,9.51 -4.78,1.94 -9.93,3.21 -15.41,3.8 -0.45,0.06 -0.73,0.08 -0.9,0.08l-0.51 0.08c-5.99,0.81 -8.97,2.45 -8.97,4.86 0,1.21 0.45,2.05 1.35,2.59 0.93,0.51 2.45,0.79 4.59,0.79 1.74,0 4.02,-0.08 6.8,-0.23 2.76,-0.14 4.64,-0.2 5.63,-0.2 11.53,0 20.87,2.31 27.98,6.92 7.11,4.61 10.66,10.52 10.66,17.72 0,9.17 -4.61,16.71 -13.81,22.58 -9.2,5.88 -21.12,8.8 -35.77,8.8 -13.3,0 -24.27,-2.33 -32.93,-7.03 -8.63,-4.7 -12.96,-10.52 -12.96,-17.44 0,-3.96 1.55,-7.26 4.61,-9.87 3.07,-2.64 6.95,-3.97 11.62,-3.97 1.1,0 2.33,0.14 3.74,0.45 1.41,0.31 3.07,0.79 4.98,1.44 -2.36,0.34 -4.14,1.23 -5.37,2.73 -1.24,1.49 -1.86,3.52 -1.86,6.1 0,4.87 2.98,9.11 8.94,12.68 5.96,3.57 13.27,5.34 21.94,5.34 8.63,0 15.86,-1.97 21.68,-5.88 5.82,-3.94 8.72,-8.66 8.72,-14.2 0,-5.35 -2.5,-9.4 -7.51,-12.21 -4.98,-2.78 -12.23,-4.19 -21.74,-4.19 -0.76,0 -2.95,0.06 -6.58,0.17 -3.63,0.11 -6.86,0.17 -9.73,0.17 -4.39,0 -7.76,-0.79 -10.12,-2.36 -2.36,-1.57 -3.54,-3.8 -3.54,-6.72 0,-2.73 1.15,-5.09 3.43,-7.03 2.28,-1.97 5.62,-3.43 10.07,-4.41 -7.51,-1.6 -13.47,-4.87 -17.89,-9.82 -4.39,-4.95 -6.58,-10.74 -6.58,-17.38 0,-9 3.57,-16.17 10.72,-21.46 7.14,-5.32 16.93,-7.96 29.42,-7.96 3.12,0 7.68,0.14 13.64,0.45 5.96,0.31 10.35,0.45 13.22,0.45 2.42,0 5.23,-0.14 8.49,-0.45 3.23,-0.31 7.09,-0.79 11.53,-1.44zm-169.89 41.37c0,9.98 2.56,18.08 7.71,24.24 5.15,6.19 11.81,9.28 20.05,9.28 7.76,0 14.09,-2.76 19.01,-8.27 4.92,-5.54 7.37,-12.65 7.37,-21.4 0,-9.39 -2.62,-17.13 -7.87,-23.23 -5.23,-6.1 -11.9,-9.14 -19.97,-9.14 -7.59,0 -13.87,2.7 -18.85,8.13 -4.98,5.4 -7.45,12.21 -7.45,20.39zm-17.72 3.37c0,-6.04 1.15,-11.72 3.43,-17.01 2.28,-5.32 5.6,-10.04 10.01,-14.23 4.22,-3.94 9.17,-7.03 14.82,-9.22 5.65,-2.19 11.53,-3.29 17.63,-3.29 6.33,0 12.04,1.01 17.13,3.04 5.12,2.05 9.73,5.15 13.87,9.31 4.05,4.08 7.17,8.66 9.31,13.72 2.14,5.09 3.21,10.41 3.21,15.95 0,6.1 -1.13,11.81 -3.38,17.1 -2.25,5.31 -5.57,10.01 -9.98,14.15 -4.16,3.88 -9.08,6.92 -14.74,9.08 -5.65,2.16 -11.53,3.26 -17.63,3.26 -6.44,0 -12.18,-0.98 -17.21,-2.95 -5.06,-2 -9.67,-5.06 -13.86,-9.25 -4.05,-4.05 -7.17,-8.66 -9.34,-13.78 -2.17,-5.15 -3.26,-10.43 -3.26,-15.86zm-16.87 24.13c0,3.52 0.45,6.44 1.35,8.8 0.93,2.36 2.36,4.41 4.33,6.19l-26.77 0c2.03,-1.77 3.49,-3.83 4.36,-6.19 0.87,-2.36 1.32,-5.29 1.32,-8.8l0 -85.64c0,-3.51 -0.45,-6.44 -1.32,-8.8 -0.87,-2.36 -2.33,-4.42 -4.36,-6.19l1.8 0c1.77,0 3.94,-0.11 6.47,-0.36 2.56,-0.25 6.84,-0.79 12.82,-1.6l0 102.6zm-104.65 -27.5c0,9.98 2.56,18.08 7.71,24.24 5.15,6.19 11.81,9.28 20.05,9.28 7.76,0 14.09,-2.76 19.01,-8.27 4.92,-5.54 7.37,-12.65 7.37,-21.4 0,-9.39 -2.62,-17.13 -7.87,-23.23 -5.23,-6.1 -11.9,-9.14 -19.97,-9.14 -7.59,0 -13.87,2.7 -18.84,8.13 -4.98,5.4 -7.45,12.21 -7.45,20.39zm-17.72 3.37c0,-6.04 1.15,-11.72 3.43,-17.01 2.28,-5.32 5.6,-10.04 10.01,-14.23 4.22,-3.94 9.17,-7.03 14.82,-9.22 5.65,-2.19 11.53,-3.29 17.63,-3.29 6.33,0 12.04,1.01 17.13,3.04 5.12,2.05 9.73,5.15 13.87,9.31 4.05,4.08 7.17,8.66 9.31,13.72 2.14,5.09 3.21,10.41 3.21,15.95 0,6.1 -1.13,11.81 -3.38,17.1 -2.25,5.31 -5.57,10.01 -9.98,14.15 -4.16,3.88 -9.08,6.92 -14.74,9.08 -5.65,2.16 -11.53,3.26 -17.63,3.26 -6.44,0 -12.18,-0.98 -17.21,-2.95 -5.06,-2 -9.67,-5.06 -13.86,-9.25 -4.05,-4.05 -7.17,-8.66 -9.34,-13.78 -2.17,-5.15 -3.26,-10.43 -3.26,-15.86zm-72.39 24.13c0,3.52 0.45,6.44 1.35,8.8 0.93,2.36 2.36,4.44 4.33,6.19l-26.94 0c2.03,-1.75 3.49,-3.83 4.36,-6.19 0.87,-2.36 1.32,-5.29 1.32,-8.8l0 -49.92c0,-3.57 -0.45,-6.58 -1.35,-9 -0.93,-2.42 -2.36,-4.5 -4.33,-6.27l1.8 0c2.7,0 5.54,-0.14 8.55,-0.45 2.98,-0.31 6.27,-0.76 9.84,-1.35l0.73 12.77c4.13,-4.39 8.27,-7.62 12.46,-9.67 4.16,-2.05 8.6,-3.09 13.33,-3.09 8.89,0 16.14,2.7 21.71,8.13 5.57,5.4 8.35,12.48 8.35,21.2l0 37.66c0,3.52 0.45,6.44 1.32,8.8 0.87,2.36 2.33,4.44 4.36,6.19l-27.2 0c2.03,-1.75 3.49,-3.83 4.42,-6.19 0.9,-2.36 1.35,-5.29 1.35,-8.8l0 -28.69c0,-8.72 -1.58,-15.07 -4.73,-19.07 -3.18,-3.97 -8.18,-5.96 -15.04,-5.96 -7.12,0 -12.23,1.83 -15.36,5.48 -3.09,3.65 -4.64,9.76 -4.64,18.34l0 29.9zm-103.58 14.99c2.03,-1.77 3.49,-3.83 4.36,-6.19 0.87,-2.36 1.32,-5.29 1.32,-8.8l0 -85.64c0,-3.51 -0.45,-6.44 -1.32,-8.8 -0.87,-2.36 -2.33,-4.42 -4.36,-6.19l1.49 0c2.3,0 4.95,-0.14 7.93,-0.45 3.01,-0.31 6.95,-0.82 11.84,-1.52l0 102.6c0,3.52 0.45,6.44 1.35,8.8 0.93,2.36 2.36,4.41 4.33,6.19l-26.94 0zm44.8 -80.18l24.72 0 -27.67 33.95 26.27 33.86c0.73,1.01 3.43,3.82 8.16,8.49 1.66,1.66 2.95,2.95 3.88,3.88l-16.23 0c-2.59,0 -4.89,-0.68 -6.92,-2.03 -2.03,-1.35 -4.44,-3.94 -7.26,-7.79l-24.95 -34.93 17.04 -19.38c1.66,-1.97 2.96,-3.85 3.91,-5.68 0.96,-1.8 1.44,-3.29 1.44,-4.44 0,-0.82 -0.17,-1.74 -0.56,-2.73 -0.4,-0.98 -0.99,-2.05 -1.83,-3.21zm-118.06 26.89l42.83 0c-0.34,-5.65 -2.42,-10.29 -6.27,-13.89 -3.82,-3.6 -8.61,-5.4 -14.32,-5.4 -6.16,0 -11.22,1.72 -15.16,5.15 -3.97,3.43 -6.33,8.16 -7.09,14.15zm-1.15 11.28c0.39,9.98 3.54,17.94 9.51,23.85 5.96,5.91 13.75,8.86 23.37,8.86 4.28,0 8.8,-0.7 13.55,-2.11 4.75,-1.41 9.9,-3.54 15.44,-6.47l-8.92 15.5c-4.75,1.77 -9.22,3.09 -13.33,3.97 -4.13,0.87 -7.99,1.32 -11.62,1.32 -13.36,0 -24.33,-4.05 -32.96,-12.12 -8.63,-8.07 -12.94,-18.31 -12.94,-30.74 0,-12.74 3.97,-23.2 11.9,-31.36 7.96,-8.16 18.08,-12.23 30.46,-12.23 11.36,0 20.39,3.71 27.11,11.17 6.69,7.45 10.13,17.58 10.29,30.37l-61.87 0zm-39.57 21.74c0,5.76 0.53,10.04 1.57,12.82 1.04,2.76 2.76,5.26 5.18,7.45l-31.39 0c2.48,-2.2 4.22,-4.7 5.23,-7.45 1.01,-2.78 1.52,-7.06 1.52,-12.82l0 -81.64 -9.22 0c-6.38,0 -11.53,0.51 -15.5,1.49 -3.97,0.99 -7.12,2.59 -9.48,4.78l5.68 -18.79 81.84 0 -5.37 18.45c-1.69,-2.02 -3.94,-3.54 -6.69,-4.5 -2.78,-0.96 -6.3,-1.43 -10.52,-1.43l-12.85 0 0 81.64zm432.7 -190.23l-10.97 0 0 -5.93c6.61,-0.59 11.78,-3.63 15.55,-9.11 3.74,-5.46 5.76,-12.88 6.05,-22.28l4.87 0 0 25.62 23.82 0 0 14.99c-1.32,-1.15 -2.93,-2 -4.81,-2.5 -1.91,-0.53 -4.39,-0.79 -7.48,-0.79l-11.53 0 0 38.98c0,7.14 1.18,12.37 3.57,15.72 2.39,3.35 6.1,5.03 11.11,5.03 1.16,-0.06 2.36,-0.17 3.63,-0.37 1.26,-0.2 2.53,-0.45 3.77,-0.79l-8.07 11.78c-0.11,0 -0.25,0 -0.39,0 -2.22,0.23 -3.8,0.34 -4.78,0.34 -8.1,0 -14.17,-2.03 -18.22,-6.1 -4.08,-4.05 -6.1,-10.07 -6.1,-18.05l0 -46.55zm-40.36 57.68c-4.13,4.39 -8.27,7.62 -12.46,9.73 -4.16,2.08 -8.61,3.12 -13.33,3.12 -8.83,0 -16.06,-2.73 -21.66,-8.21 -5.6,-5.46 -8.41,-12.57 -8.41,-21.37l0 -37.4c0,-3.57 -0.45,-6.55 -1.35,-8.97 -0.93,-2.42 -2.36,-4.53 -4.33,-6.27l2.3 0c3.18,0 6.38,-0.14 9.56,-0.45 3.18,-0.31 6.36,-0.76 9.48,-1.35l0.08 45.7c0,8.69 1.57,15.02 4.7,19.01 3.12,3.97 8.13,5.96 14.99,5.96 7.17,0 12.32,-1.83 15.44,-5.51 3.09,-3.68 4.64,-9.84 4.64,-18.45l0 -29.67c0,-3.57 -0.45,-6.55 -1.35,-8.97 -0.93,-2.42 -2.39,-4.53 -4.42,-6.27l2.05 0c2.92,0 5.96,-0.14 9.11,-0.45 3.15,-0.31 6.55,-0.76 10.18,-1.35l0 64.91c0,3.52 0.45,6.47 1.32,8.83 0.87,2.36 2.33,4.41 4.36,6.19l-1.49 0c-2.42,0 -5.06,0.17 -7.99,0.48 -2.9,0.34 -6.44,0.87 -10.63,1.57l-0.82 -10.8zm-112.04 -57.68l-10.97 0 0 -5.93c6.61,-0.59 11.78,-3.63 15.55,-9.11 3.74,-5.46 5.77,-12.88 6.05,-22.28l4.86 0 0 25.62 23.82 0 0 14.99c-1.32,-1.15 -2.92,-2 -4.81,-2.5 -1.91,-0.53 -4.39,-0.79 -7.48,-0.79l-11.53 0 0 38.98c0,7.14 1.18,12.37 3.57,15.72 2.39,3.35 6.1,5.03 11.11,5.03 1.15,-0.06 2.36,-0.17 3.63,-0.37 1.27,-0.2 2.53,-0.45 3.77,-0.79l-8.07 11.78c-0.11,0 -0.25,0 -0.39,0 -2.22,0.23 -3.8,0.34 -4.78,0.34 -8.1,0 -14.17,-2.03 -18.22,-6.1 -4.08,-4.05 -6.1,-10.07 -6.1,-18.05l0 -46.55zm-44.55 -33.13c0,-2.78 0.98,-5.17 2.95,-7.14 2,-2 4.39,-2.98 7.17,-2.98 2.75,0 5.09,0.99 7,2.98 1.94,1.97 2.9,4.36 2.9,7.14 0,2.87 -0.96,5.29 -2.84,7.23 -1.88,1.94 -4.25,2.93 -7.06,2.93 -2.84,0 -5.26,-0.99 -7.2,-2.98 -1.94,-1.97 -2.92,-4.36 -2.92,-7.17zm18.53 86.62c0,3.52 0.45,6.44 1.35,8.8 0.93,2.36 2.39,4.42 4.41,6.19l-26.86 0c2.02,-1.77 3.49,-3.82 4.42,-6.19 0.9,-2.36 1.35,-5.29 1.35,-8.8l0 -49.95c0,-3.57 -0.48,-6.55 -1.41,-8.97 -0.93,-2.42 -2.39,-4.5 -4.36,-6.27 4.72,-0.11 8.8,-0.31 12.21,-0.62 3.4,-0.28 6.36,-0.7 8.89,-1.18l0 66.99zm-72.59 -53.49l-10.97 0 0 -5.93c6.61,-0.59 11.78,-3.63 15.55,-9.11 3.74,-5.46 5.77,-12.88 6.05,-22.28l4.86 0 0 25.62 23.82 0 0 14.99c-1.32,-1.15 -2.92,-2 -4.81,-2.5 -1.91,-0.53 -4.39,-0.79 -7.48,-0.79l-11.53 0 0 38.98c0,7.14 1.18,12.37 3.57,15.72 2.39,3.35 6.1,5.03 11.11,5.03 1.16,-0.06 2.36,-0.17 3.63,-0.37 1.27,-0.2 2.53,-0.45 3.77,-0.79l-8.07 11.78c-0.11,0 -0.25,0 -0.4,0 -2.22,0.23 -3.8,0.34 -4.78,0.34 -8.1,0 -14.17,-2.03 -18.22,-6.1 -4.08,-4.05 -6.1,-10.07 -6.1,-18.05l0 -46.55zm-81.47 66.82l-6.58 -18.28c6.21,4.16 11.95,7.28 17.21,9.31 5.29,2.02 10.29,3.04 15.02,3.04 5.88,0 10.57,-1.15 14.12,-3.43 3.54,-2.28 5.32,-5.29 5.32,-9.08 0,-4.73 -6.02,-9.48 -18.06,-14.26 -2.93,-1.13 -5.17,-2.08 -6.75,-2.78 -7.09,-2.98 -12.23,-6.27 -15.47,-9.9 -3.21,-3.63 -4.81,-7.9 -4.81,-12.85 0,-7.09 2.81,-12.71 8.41,-16.88 5.6,-4.19 13.27,-6.27 23,-6.27 3.12,0 6.55,0.22 10.29,0.7 3.74,0.48 7.65,1.12 11.78,2.02l0 14.34c-4.19,-2.08 -8.24,-3.68 -12.21,-4.78 -3.97,-1.1 -7.76,-1.66 -11.45,-1.66 -4.19,0 -7.51,0.9 -9.98,2.67 -2.47,1.8 -3.71,4.16 -3.71,7.14 0,4.22 5.01,8.16 15.02,11.78 4.27,1.52 7.68,2.84 10.21,3.94 7.14,3.04 12.37,6.36 15.72,9.98 3.35,3.63 5.03,7.82 5.03,12.6 0,8.24 -3.54,14.85 -10.63,19.85 -7.09,4.98 -16.62,7.48 -28.6,7.48 -4.33,0 -8.35,-0.39 -12.09,-1.15 -3.74,-0.76 -7.34,-1.94 -10.8,-3.54zm-77.09 -13.33c0,3.52 0.45,6.44 1.35,8.8 0.93,2.36 2.36,4.44 4.33,6.19l-26.94 0c2.03,-1.74 3.49,-3.82 4.36,-6.19 0.87,-2.36 1.32,-5.29 1.32,-8.8l0 -49.92c0,-3.57 -0.45,-6.58 -1.35,-9 -0.93,-2.42 -2.36,-4.5 -4.33,-6.27l1.8 0c2.7,0 5.54,-0.14 8.55,-0.45 2.98,-0.31 6.27,-0.76 9.84,-1.35l0.73 12.77c4.13,-4.39 8.27,-7.62 12.46,-9.67 4.16,-2.05 8.6,-3.09 13.33,-3.09 8.89,0 16.14,2.7 21.71,8.13 5.57,5.4 8.35,12.48 8.35,21.2l0 37.66c0,3.52 0.45,6.44 1.32,8.8 0.87,2.36 2.33,4.44 4.36,6.19l-27.19 0c2.02,-1.74 3.49,-3.82 4.42,-6.19 0.9,-2.36 1.35,-5.29 1.35,-8.8l0 -28.68c0,-8.72 -1.57,-15.08 -4.72,-19.07 -3.18,-3.97 -8.18,-5.96 -15.05,-5.96 -7.12,0 -12.23,1.83 -15.36,5.48 -3.09,3.66 -4.64,9.76 -4.64,18.34l0 29.89zm-43.84 -5.29c0,5.76 0.51,10.04 1.52,12.82 1.01,2.78 2.76,5.26 5.23,7.45l-31.39 0c2.48,-2.19 4.22,-4.67 5.23,-7.45 1.01,-2.78 1.52,-7.06 1.52,-12.82l0 -74.05c0,-5.77 -0.51,-10.04 -1.52,-12.77 -1.01,-2.76 -2.76,-5.2 -5.23,-7.34l31.39 0c-2.48,2.14 -4.22,4.58 -5.23,7.34 -1.01,2.73 -1.52,7 -1.52,12.77l0 74.05zm-975.7 -43.22c0,28.31 3.25,56.55 9.72,84.11 14.07,0 28.14,0 42.2,0 7.47,27.99 18.69,54.96 33.3,80.01 -9.98,9.98 -19.97,19.97 -29.95,29.95 14.91,24.06 32.57,46.33 52.61,66.36 20.02,20.03 42.28,37.68 66.34,52.59 9.98,-9.98 19.97,-19.97 29.95,-29.95 25.06,14.61 52.02,25.83 80.01,33.3 0,14.07 0,28.14 0,42.2 27.56,6.47 55.78,9.72 84.12,9.72 28.34,0 56.56,-3.26 84.12,-9.72 0,-14.07 0,-28.14 0,-42.2 27.99,-7.47 54.95,-18.69 80.01,-33.3 9.98,9.98 19.97,19.97 29.95,29.95 24.06,-14.91 46.33,-32.57 66.34,-52.59 20.04,-20.04 37.7,-42.3 52.61,-66.36 -9.98,-9.98 -19.97,-19.97 -29.95,-29.95 14.61,-25.05 25.83,-52.03 33.3,-80.01 14.07,0 28.14,0 42.2,0 6.47,-27.55 9.72,-55.79 9.72,-84.11 0,-28.31 -3.25,-56.56 -9.72,-84.11 -14.07,0 -28.14,0 -42.2,0 -7.47,-27.99 -18.69,-54.96 -33.3,-80.01 9.98,-9.98 19.97,-19.97 29.95,-29.95 -14.91,-24.06 -32.57,-46.32 -52.61,-66.36 -20.02,-20.03 -42.28,-37.68 -66.34,-52.59 -9.98,9.98 -19.97,19.97 -29.95,29.95 -25.07,-14.61 -52.02,-25.83 -80.01,-33.3 0,-14.06 -0,-28.14 -0,-42.2 -27.56,-6.47 -55.78,-9.72 -84.12,-9.72 -28.34,0 -56.56,3.25 -84.12,9.72 0,14.07 -0,28.14 -0,42.2 -27.99,7.47 -54.95,18.69 -80.01,33.3 -9.98,-9.98 -19.97,-19.97 -29.95,-29.95 -24.06,14.91 -46.33,32.57 -66.34,52.59 -20.04,20.04 -37.7,42.3 -52.61,66.36 9.98,9.98 19.97,19.97 29.95,29.95 -14.61,25.05 -25.83,52.03 -33.3,80.01 -14.07,0 -28.14,0 -42.2,0 -6.47,27.55 -9.72,55.79 -9.72,84.11zm334.25 -259.72c-128.28,16.79 -227.89,126.98 -227.89,259.72 0,92.23 48.11,173.57 120.5,220.26 25.87,-10 48.92,-24.25 72.41,-39.35 -10.58,-3.82 -19.71,-6.71 -25.01,-8.2 -34.23,-9.59 -67.39,-34.74 -78.71,-71.41 -9.07,-29.36 1.29,-57.6 -0.97,-87.24 -2.22,-29.14 -8,-52.95 -21.55,-79.16 33.32,2.79 56.25,12.82 78.6,30.19 -1.46,-18.31 -8.28,-35.49 -15.98,-53.12 36.34,0.63 61.54,10.26 85.6,27.96l13 -199.66zm-0.24 183.2c10.48,-13.51 22.08,-25.85 34.3,-36.83 12.22,10.98 23.82,23.32 34.3,36.83l-15.21 -246.98 -19.09 -24.02 -19.09 24.02 -15.21 246.98zm81.36 16.46c24.07,-17.7 49.27,-27.33 85.6,-27.96 -7.7,17.62 -14.51,34.81 -15.98,53.12 22.35,-17.38 45.28,-27.41 78.6,-30.19 -13.55,26.21 -19.33,50.01 -21.55,79.16 -2.26,29.63 8.1,57.88 -0.97,87.24 -11.33,36.67 -44.48,61.83 -78.71,71.41 -5.31,1.49 -14.44,4.38 -25.01,8.2 23.49,15.1 46.55,29.35 72.41,39.35 72.39,-46.7 120.5,-128.03 120.5,-220.26 0,-132.73 -99.61,-242.92 -227.89,-259.71l13 199.65zm5.76 11.32c18.64,33.25 32.1,74.35 31.71,115.2 -0.34,35.44 -18.66,87.49 -52.06,116.59 32.07,-17.61 83.71,-63.48 86.68,-104.22 2.72,-37.19 -11.7,-68.87 -14.82,-104.88 -1.39,-16.06 4.74,-35.55 9.88,-49.96 -23.35,3.03 -46.32,15.04 -61.39,27.26zm-105.65 0c-15.07,-12.22 -38.04,-24.23 -61.39,-27.26 5.14,14.41 11.27,33.9 9.88,49.96 -3.11,36.01 -17.53,67.69 -14.82,104.88 2.98,40.74 54.61,86.61 86.69,104.22 -33.41,-29.11 -51.72,-81.16 -52.07,-116.59 -0.4,-40.85 13.07,-81.95 31.71,-115.2zm-64.32 31.41c-13.86,-15.69 -38.1,-27.22 -57.76,-33.52 9.78,18.62 12.97,42.26 14.42,61.86 2.22,29.87 -8.13,63.61 1.61,90.28 14.76,40.42 51.18,54.23 89.64,65.97 -32.89,-21.44 -58.74,-50.54 -61.9,-89.43 -2.65,-32.59 10.64,-64.38 13.98,-95.16zm234.29 0c3.34,30.78 16.63,62.57 13.98,95.16 -3.16,38.89 -29.01,67.98 -61.9,89.43 38.46,-11.74 74.88,-25.55 89.64,-65.97 9.74,-26.66 -0.61,-60.4 1.61,-90.28 1.46,-19.6 4.64,-43.23 14.42,-61.86 -19.66,6.3 -43.9,17.83 -57.76,33.52zm-117.14 215.07c39.22,-29.49 70.99,-76.89 71.46,-128.14 0.6,-66.01 -31.56,-126.88 -71.46,-166.1 -39.9,39.23 -72.06,100.09 -71.46,166.1 0.47,51.25 32.24,98.65 71.46,128.14zm-49.56 -9.31c-23.35,20.18 -49.93,35.79 -78.28,46.37l12.09 20.23 231.5 0 12.09 -20.23c-28.34,-10.58 -54.92,-26.19 -78.28,-46.37 -21.41,8.85 -43.07,19.97 -49.56,30.24 -6.49,-10.27 -28.15,-21.39 -49.56,-30.24zm82.56 -464.64c137.77,16.4 245.2,134.14 245.2,276.21 0,99.19 -52.39,186.53 -130.91,235.8l-22.25 37.22 -250.09 0 -22.25 -37.22c-78.51,-49.27 -130.9,-136.6 -130.9,-235.8 0,-142.06 107.44,-259.81 245.2,-276.22l3.47 -53.3 29.52 -35.15 29.52 35.15 3.47 53.31zm-32.99 -108.34c33.85,0 67.67,4.66 100.36,13.37l0 43.16c21.1,6.49 41.35,14.96 60.52,25.21l30.61 -30.61c29.28,16.95 56.5,37.57 80.43,61.51 23.94,23.93 44.55,51.14 61.51,80.42l-30.62 30.62c10.24,19.17 18.72,39.41 25.2,60.51l43.16 0c8.72,32.69 13.38,66.52 13.38,100.37 0,33.84 -4.66,67.67 -13.38,100.36l-43.16 0c-6.49,21.1 -14.96,41.35 -25.2,60.51l30.62 30.62c-16.96,29.28 -37.57,56.49 -61.51,80.42 -23.93,23.94 -51.15,44.56 -80.43,61.51l-30.61 -30.61c-19.17,10.24 -39.41,18.72 -60.52,25.2l0 43.16c-32.7,8.71 -66.51,13.37 -100.36,13.37 -33.85,0 -67.67,-4.66 -100.36,-13.37l0 -43.16c-21.1,-6.49 -41.35,-14.96 -60.52,-25.2l-30.61 30.61c-29.28,-16.95 -56.5,-37.57 -80.43,-61.51 -23.94,-23.93 -44.55,-51.14 -61.51,-80.42l30.62 -30.62c-10.24,-19.17 -18.71,-39.42 -25.2,-60.51l-43.16 0c-8.72,-32.69 -13.38,-66.52 -13.38,-100.36 0,-33.84 4.66,-67.67 13.38,-100.37l43.16 0c6.49,-21.1 14.96,-41.34 25.2,-60.51l-30.62 -30.62c16.96,-29.28 37.57,-56.49 61.51,-80.42 23.93,-23.94 51.15,-44.56 80.43,-61.51l30.61 30.61c19.17,-10.24 39.41,-18.72 60.52,-25.21l0 -43.16c32.69,-8.71 66.51,-13.37 100.36,-13.37z"/>
  <path class="fil1" d="M1997.67 1394.5l-66.64 0 66.64 -58.24 0 58.24zm-1376.25 -1394.5l98.11 -0 0 15.33 -82.77 0 0 82.77 -15.33 0 -0 -98.1zm3000.01 3000l-98.11 0 0 -15.33 82.77 0 0 -82.77 15.33 0 0 98.11zm-3000.01 0l-0 -98.11 15.33 0 0 82.77 82.78 0 0 15.33 -98.11 0zm3000 -3000.01l0 98.11 -15.33 0 0 -82.77 -82.77 0 0 -15.33 98.1 -0zm-2316.1 1458.74c-128.28,16.79 -227.89,126.98 -227.89,259.72 0,92.23 48.11,173.57 120.5,220.26 25.87,-10 48.92,-24.25 72.41,-39.35 -10.58,-3.82 -19.71,-6.71 -25.01,-8.2 -34.23,-9.59 -67.39,-34.74 -78.71,-71.41 -9.07,-29.36 1.29,-57.6 -0.97,-87.24 -2.22,-29.14 -8,-52.95 -21.55,-79.16 33.32,2.79 56.25,12.82 78.6,30.19 -1.46,-18.31 -8.28,-35.49 -15.98,-53.12 36.34,0.63 61.54,10.26 85.6,27.96l13 -199.66zm-0.24 183.2c10.48,-13.51 22.08,-25.85 34.3,-36.83 12.22,10.98 23.82,23.32 34.3,36.83l-15.21 -246.98 -19.09 -24.02 -19.09 24.02 -15.21 246.98zm81.36 16.46c24.07,-17.7 49.27,-27.33 85.6,-27.96 -7.7,17.62 -14.51,34.81 -15.98,53.12 22.35,-17.38 45.28,-27.41 78.6,-30.19 -13.55,26.21 -19.33,50.01 -21.55,79.16 -2.26,29.63 8.1,57.88 -0.97,87.24 -11.33,36.67 -44.48,61.83 -78.71,71.41 -5.31,1.49 -14.44,4.38 -25.01,8.2 23.49,15.1 46.55,29.35 72.41,39.35 72.39,-46.7 120.5,-128.03 120.5,-220.26 0,-132.73 -99.61,-242.92 -227.89,-259.71l13 199.65zm-14.07 -216.15c137.77,16.4 245.2,134.14 245.2,276.21 0,99.19 -52.39,186.53 -130.91,235.8l-22.25 37.22 -250.09 0 -22.25 -37.22c-78.51,-49.27 -130.9,-136.6 -130.9,-235.8 0,-142.06 107.44,-259.81 245.2,-276.22l3.47 -53.3 29.52 -35.15 29.52 35.15 3.47 53.31zm19.83 227.46c18.64,33.25 32.1,74.35 31.71,115.2 -0.34,35.44 -18.66,87.49 -52.06,116.59 32.07,-17.61 83.71,-63.48 86.68,-104.22 2.72,-37.19 -11.7,-68.87 -14.82,-104.88 -1.39,-16.06 4.74,-35.55 9.88,-49.96 -23.35,3.03 -46.32,15.04 -61.39,27.26zm-105.65 0c-15.07,-12.22 -38.04,-24.23 -61.39,-27.26 5.14,14.41 11.27,33.9 9.88,49.96 -3.11,36.01 -17.53,67.69 -14.82,104.88 2.98,40.74 54.61,86.61 86.69,104.22 -33.41,-29.11 -51.72,-81.16 -52.07,-116.59 -0.4,-40.85 13.07,-81.95 31.71,-115.2zm-64.32 31.41c-13.86,-15.69 -38.1,-27.22 -57.76,-33.52 9.78,18.62 12.97,42.26 14.42,61.86 2.22,29.87 -8.13,63.61 1.61,90.28 14.76,40.42 51.18,54.23 89.64,65.97 -32.89,-21.44 -58.74,-50.54 -61.9,-89.43 -2.65,-32.59 10.64,-64.38 13.98,-95.16zm234.29 0c3.34,30.78 16.63,62.57 13.98,95.16 -3.16,38.89 -29.01,67.98 -61.9,89.43 38.46,-11.74 74.88,-25.55 89.64,-65.97 9.74,-26.66 -0.61,-60.4 1.61,-90.28 1.46,-19.6 4.64,-43.23 14.42,-61.86 -19.66,6.3 -43.9,17.83 -57.76,33.52zm-117.14 215.07c39.22,-29.49 70.99,-76.89 71.46,-128.14 0.6,-66.01 -31.56,-126.88 -71.46,-166.1 -39.9,39.23 -72.06,100.09 -71.46,166.1 0.47,51.25 32.24,98.65 71.46,128.14zm-49.56 -9.31c-23.35,20.18 -49.93,35.79 -78.28,46.37l12.09 20.23 231.5 0 12.09 -20.23c-28.34,-10.58 -54.92,-26.19 -78.28,-46.37 -21.41,8.85 -43.07,19.97 -49.56,30.24 -6.49,-10.27 -28.15,-21.39 -49.56,-30.24zm-318.75 -188.44c0,28.31 3.25,56.55 9.72,84.11 14.07,0 28.14,0 42.2,0 7.47,27.99 18.69,54.96 33.3,80.01 -9.98,9.98 -19.97,19.97 -29.95,29.95 14.91,24.06 32.57,46.33 52.61,66.36 20.02,20.03 42.28,37.68 66.34,52.59 9.98,-9.98 19.97,-19.97 29.95,-29.95 25.06,14.61 52.02,25.83 80.01,33.3 0,14.07 0,28.14 0,42.2 27.56,6.47 55.78,9.72 84.12,9.72 28.34,0 56.56,-3.26 84.12,-9.72 0,-14.07 0,-28.14 0,-42.2 27.99,-7.47 54.95,-18.69 80.01,-33.3 9.98,9.98 19.97,19.97 29.95,29.95 24.06,-14.91 46.33,-32.57 66.34,-52.59 20.04,-20.04 37.7,-42.3 52.61,-66.36 -9.98,-9.98 -19.97,-19.97 -29.95,-29.95 14.61,-25.05 25.83,-52.03 33.3,-80.01 14.07,0 28.14,0 42.2,0 6.47,-27.55 9.72,-55.79 9.72,-84.11 0,-28.31 -3.25,-56.56 -9.72,-84.11 -14.07,0 -28.14,0 -42.2,0 -7.47,-27.99 -18.69,-54.96 -33.3,-80.01 9.98,-9.98 19.97,-19.97 29.95,-29.95 -14.91,-24.06 -32.57,-46.32 -52.61,-66.36 -20.02,-20.03 -42.28,-37.68 -66.34,-52.59 -9.98,9.98 -19.97,19.97 -29.95,29.95 -25.07,-14.61 -52.02,-25.83 -80.01,-33.3 0,-14.06 -0,-28.14 -0,-42.2 -27.56,-6.47 -55.78,-9.72 -84.12,-9.72 -28.34,0 -56.56,3.25 -84.12,9.72 0,14.07 -0,28.14 -0,42.2 -27.99,7.47 -54.95,18.69 -80.01,33.3 -9.98,-9.98 -19.97,-19.97 -29.95,-29.95 -24.06,14.91 -46.33,32.57 -66.34,52.59 -20.04,20.04 -37.7,42.3 -52.61,66.36 9.98,9.98 19.97,19.97 29.95,29.95 -14.61,25.05 -25.83,52.03 -33.3,80.01 -14.07,0 -28.14,0 -42.2,0 -6.47,27.55 -9.72,55.79 -9.72,84.11zm368.31 -384.55c33.85,0 67.67,4.66 100.36,13.37l0 43.16c21.1,6.49 41.35,14.96 60.52,25.21l30.61 -30.61c29.28,16.95 56.5,37.57 80.43,61.51 23.94,23.93 44.55,51.14 61.51,80.42l-30.62 30.62c10.24,19.17 18.72,39.41 25.2,60.51l43.16 0c8.72,32.69 13.38,66.52 13.38,100.37 0,33.84 -4.66,67.67 -13.38,100.36l-43.16 0c-6.49,21.1 -14.96,41.35 -25.2,60.51l30.62 30.62c-16.96,29.28 -37.57,56.49 -61.51,80.42 -23.93,23.94 -51.15,44.56 -80.43,61.51l-30.61 -30.61c-19.17,10.24 -39.41,18.72 -60.52,25.2l0 43.16c-32.7,8.71 -66.51,13.37 -100.36,13.37 -33.85,0 -67.67,-4.66 -100.36,-13.37l0 -43.16c-21.1,-6.49 -41.35,-14.96 -60.52,-25.2l-30.61 30.61c-29.28,-16.95 -56.5,-37.57 -80.43,-61.51 -23.94,-23.93 -44.55,-51.14 -61.51,-80.42l30.62 -30.62c-10.24,-19.17 -18.71,-39.42 -25.2,-60.51l-43.16 0c-8.72,-32.69 -13.38,-66.52 -13.38,-100.36 0,-33.84 4.66,-67.67 13.38,-100.37l43.16 0c6.49,-21.1 14.96,-41.34 25.2,-60.51l-30.62 -30.62c16.96,-29.28 37.57,-56.49 61.51,-80.42 23.93,-23.94 51.15,-44.56 80.43,-61.51l30.61 30.61c19.17,-10.24 39.41,-18.72 60.52,-25.21l0 -43.16c32.69,-8.71 66.51,-13.37 100.36,-13.37z"/>
 </g>
</svg>
